<svg width="1440" height="280" viewBox="0 0 1440 280" fill="none" xmlns="http://www.w3.org/2000/svg">
<g clip-path="url(#clip0_192_1292)">
<path d="M0 244.83C62.5163 202.219 128.431 165.937 196.93 136.431C197.51 136.19 198.08 135.937 198.66 135.696C199.24 135.454 199.83 135.191 200.41 134.949C200.99 134.707 201.57 134.455 202.15 134.213C202.73 133.972 203.3 133.719 203.88 133.478C204.46 133.236 205.04 132.995 205.63 132.753C206.22 132.511 206.79 132.259 207.37 132.017C207.95 131.776 208.54 131.534 209.12 131.293C209.7 131.051 210.28 130.809 210.86 130.579C211.44 130.348 212.02 130.096 212.61 129.865C213.18 129.624 213.75 129.382 214.33 129.151C214.91 128.921 215.5 128.668 216.09 128.438C216.66 128.207 217.23 127.966 217.81 127.735C218.39 127.504 218.96 127.274 219.54 127.043C220.12 126.813 220.72 126.571 221.32 126.329C221.88 126.099 222.45 125.879 223.02 125.649C223.59 125.418 224.19 125.187 224.78 124.957C225.37 124.726 225.98 124.474 226.58 124.243L228.26 123.584C228.84 123.354 229.42 123.123 230.01 122.904C230.58 122.673 231.15 122.453 231.73 122.234C232.31 122.014 232.88 121.784 233.46 121.564C234.04 121.344 234.61 121.114 235.19 120.894C235.75 120.686 236.31 120.466 236.87 120.246C236.88 120.246 236.89 120.235 236.91 120.235C237.56 119.983 238.22 119.741 238.87 119.5C328.75 85.4165 430.89 61.0839 538.62 61.0839C782.32 61.0839 934.79 191.3 1071.62 191.3C1110.83 191.203 1149.89 186.01 1187.99 175.829C1188.1 175.796 1188.21 175.763 1188.32 175.741C1188.34 175.738 1188.37 175.73 1188.39 175.719L1189.15 175.522C1189.29 175.478 1189.43 175.445 1189.57 175.401C1189.75 175.357 1189.94 175.302 1190.12 175.258C1190.54 175.148 1190.96 175.027 1191.38 174.918L1191.73 174.819C1192.03 174.742 1192.32 174.654 1192.62 174.577C1193.11 174.446 1193.59 174.314 1194.08 174.171C1194.59 174.039 1195.09 173.896 1195.6 173.754C1195.62 173.751 1195.64 173.744 1195.66 173.732L1195.9 173.666L1197.19 173.304C1197.75 173.139 1198.32 172.974 1198.88 172.82L1200.8 172.26C1201.49 172.063 1202.17 171.854 1202.86 171.646C1203.28 171.525 1203.69 171.404 1204.11 171.272C1207.48 170.273 1210.83 169.233 1214.15 168.154C1215.19 167.824 1216.22 167.484 1217.25 167.144C1217.41 167.089 1217.57 167.034 1217.74 166.979C1232.58 162.082 1247.04 156.569 1261.08 150.585C1268.73 147.313 1276.26 143.909 1283.66 140.373C1289.8 137.453 1295.85 134.448 1301.8 131.358C1307.22 128.558 1312.57 125.693 1317.84 122.761C1322.78 120.027 1327.65 117.249 1332.45 114.427C1337.06 111.726 1341.6 108.995 1346.06 106.235C1350.37 103.567 1354.61 100.877 1358.79 98.1647C1362.92 95.4965 1366.99 92.8063 1370.98 90.0941C1374.9 87.4369 1378.76 84.765 1382.57 82.0785C1386.36 79.4212 1390.09 76.7493 1393.75 74.0628C1397.39 71.4055 1400.97 68.7409 1404.48 66.069C1408.01 63.4008 1411.47 60.7326 1414.86 58.0643C1418.28 55.3851 1421.63 52.7132 1424.92 50.0487C1428.25 47.3475 1431.51 44.6646 1434.7 42C1436.49 40.5067 1438.26 39.017 1440 37.531" stroke="#2C3650" stroke-miterlimit="10"/>
<path d="M0 238.088C62.0812 197.73 127.357 163.614 195.03 136.157C195.61 135.926 196.19 135.696 196.77 135.454C197.35 135.213 197.95 134.982 198.54 134.751C199.13 134.521 199.7 134.279 200.28 134.049C200.86 133.818 201.43 133.598 202.01 133.368C202.59 133.137 203.18 132.896 203.77 132.665C204.36 132.434 204.94 132.204 205.52 131.973C206.1 131.743 206.68 131.512 207.27 131.293C207.84 131.062 208.42 130.842 209 130.612C209.58 130.381 210.16 130.162 210.75 129.931C211.34 129.7 211.91 129.492 212.49 129.261C213.07 129.031 213.66 128.811 214.25 128.591C214.84 128.372 215.41 128.141 216 127.922C216.57 127.702 217.15 127.482 217.73 127.263C218.31 127.043 218.9 126.813 219.49 126.593C220.08 126.373 220.64 126.154 221.22 125.945C221.8 125.736 222.39 125.506 222.98 125.286C223.59 125.056 224.19 124.825 224.8 124.616C224.81 124.616 224.82 124.605 224.83 124.605C225.38 124.386 225.93 124.188 226.48 123.991C227.07 123.76 227.66 123.551 228.25 123.332C228.271 123.333 228.291 123.33 228.31 123.321C228.87 123.101 229.42 122.903 229.98 122.706C230.54 122.508 231.09 122.289 231.65 122.091C232.21 121.893 232.77 121.685 233.33 121.476C233.92 121.267 234.51 121.048 235.1 120.839C236.35 120.389 237.61 119.939 238.87 119.5C328.45 87.6674 430.04 65.2784 536.76 65.9043C716.88 67.0462 848.52 136.607 957.25 171.92C996.47 184.657 1033.26 192.958 1068.9 192.761C1108.08 192.522 1147.1 187.196 1185.14 176.894C1185.16 176.882 1185.19 176.874 1185.21 176.872C1185.29 176.84 1185.37 176.818 1185.46 176.806C1185.51 176.787 1185.56 176.772 1185.61 176.762C1185.82 176.707 1186.03 176.653 1186.23 176.587C1186.45 176.532 1186.66 176.477 1186.88 176.411C1187 176.388 1187.12 176.355 1187.23 176.312C1187.61 176.213 1187.99 176.114 1188.37 176.005C1188.64 175.939 1188.91 175.862 1189.18 175.774C1189.3 175.752 1189.42 175.718 1189.54 175.675C1189.9 175.587 1190.26 175.489 1190.61 175.39C1191.1 175.247 1191.59 175.115 1192.08 174.962C1192.5 174.852 1192.93 174.731 1193.35 174.599C1193.38 174.597 1193.4 174.59 1193.43 174.577C1193.48 174.566 1193.52 174.544 1193.57 174.533C1193.87 174.467 1194.18 174.38 1194.48 174.281C1194.79 174.204 1195.1 174.105 1195.41 174.017C1195.5 173.998 1195.6 173.972 1195.69 173.94C1197.67 173.358 1199.65 172.776 1201.62 172.173H1201.64C1204.98 171.148 1208.3 170.097 1211.59 169.021C1213.48 168.406 1215.37 167.78 1217.25 167.143C1217.41 167.089 1217.57 167.034 1217.74 166.979C1230.53 162.631 1243.03 157.861 1255.23 152.671C1262.95 149.41 1270.54 146.01 1278.01 142.471C1284.1 139.583 1290.1 136.622 1296.01 133.587C1301.38 130.842 1306.67 128.035 1311.89 125.165C1316.8 122.475 1321.64 119.745 1326.41 116.974C1330.94 114.35 1335.41 111.689 1339.81 108.991C1344.11 106.378 1348.35 103.735 1352.52 101.063C1356.6 98.4611 1360.62 95.8405 1364.57 93.2015C1368.45 90.6211 1372.27 88.0224 1376.04 85.4054C1376.06 85.3945 1376.07 85.3835 1376.09 85.3835C1379.82 82.8031 1383.49 80.219 1387.08 77.6313C1390.7 75.0509 1394.26 72.4596 1397.75 69.8572C1401.26 67.2548 1404.71 64.6598 1408.1 62.0721C1411.5 59.4697 1414.83 56.8784 1418.1 54.298C1421.39 51.7066 1424.61 49.1262 1427.76 46.5568H1427.77C1430.98 43.9545 1434.12 41.3704 1437.2 38.8046C1438.14 38.025 1439.08 37.2454 1440 36.4658" stroke="#2C3650" stroke-miterlimit="10"/>
<path d="M0 231.445C61.6573 193.329 126.299 161.351 193.15 135.893C193.73 135.674 194.32 135.443 194.9 135.224C195.48 135.004 196.08 134.773 196.67 134.554C197.26 134.334 197.84 134.115 198.43 133.895C199 133.675 199.58 133.456 200.16 133.247C200.74 133.038 201.33 132.808 201.92 132.588L203.69 131.929C204.27 131.71 204.85 131.501 205.43 131.293C206.01 131.084 206.6 130.853 207.18 130.645C207.76 130.436 208.34 130.217 208.93 130.008L210.64 129.382C211.24 129.162 211.84 128.943 212.45 128.734C213.03 128.515 213.61 128.306 214.2 128.097C214.77 127.889 215.35 127.691 215.93 127.482C216.51 127.274 217.1 127.065 217.69 126.856C218.26 126.648 218.84 126.45 219.41 126.242C220.01 126.033 220.6 125.824 221.19 125.616L223.01 124.99C223.56 124.792 224.12 124.595 224.67 124.408C225.28 124.188 225.88 123.98 226.49 123.782C227.08 123.573 227.67 123.365 228.26 123.167C228.85 122.969 229.41 122.772 229.99 122.574C230.57 122.376 231.12 122.19 231.69 121.992C232.82 121.608 233.96 121.224 235.1 120.839L236.87 120.246C236.88 120.246 236.89 120.235 236.91 120.235C326.66 90.2698 428.42 69.473 534.9 70.7138C715.14 72.9977 848.2 141.054 954.74 174.577C993.93 186.908 1030.67 194.606 1066.18 194.21C1105.23 193.831 1144.1 188.391 1181.98 178.003L1182.46 177.871C1182.48 177.869 1182.5 177.862 1182.52 177.849C1182.55 177.848 1182.59 177.841 1182.62 177.827C1182.65 177.815 1182.67 177.808 1182.7 177.806C1182.73 177.805 1182.77 177.797 1182.8 177.784C1182.89 177.763 1182.98 177.737 1183.07 177.707C1183.2 177.674 1183.33 177.641 1183.45 177.608C1183.72 177.531 1183.99 177.465 1184.25 177.388C1184.27 177.388 1184.3 177.38 1184.32 177.366C1184.6 177.289 1184.87 177.224 1185.14 177.136C1185.46 177.059 1185.79 176.96 1186.11 176.872C1186.32 176.817 1186.52 176.762 1186.73 176.696C1186.85 176.664 1186.98 176.631 1187.1 176.587C1187.25 176.543 1187.4 176.51 1187.56 176.466L1188.09 176.301C1188.12 176.299 1188.14 176.292 1188.17 176.279C1188.19 176.29 1188.21 176.279 1188.23 176.257C1188.48 176.202 1188.72 176.126 1188.97 176.06L1189.18 175.994C1192.77 174.975 1196.35 173.907 1199.92 172.787C1203.84 171.58 1207.72 170.328 1211.59 169.021C1212.44 168.736 1213.3 168.45 1214.15 168.154C1226.02 164.102 1237.63 159.692 1248.99 154.922C1256.8 151.65 1264.48 148.243 1272.04 144.7C1278.13 141.856 1284.13 138.931 1290.03 135.926C1295.37 133.214 1300.64 130.447 1305.83 127.625C1310.68 125.012 1315.46 122.351 1320.18 119.642C1324.69 117.062 1329.13 114.452 1333.51 111.813H1333.52C1337.78 109.244 1341.98 106.66 1346.13 104.061C1350.17 101.514 1354.15 98.959 1358.07 96.3969C1361.95 93.8604 1365.78 91.3093 1369.56 88.7436C1373.27 86.229 1376.92 83.7072 1380.52 81.1781C1384.07 78.6855 1387.56 76.1893 1391 73.6894C1394.45 71.2005 1397.84 68.708 1401.18 66.2118C1401.19 66.2008 1401.2 66.2008 1401.21 66.1898C1404.61 63.6643 1407.94 61.1462 1411.21 58.6353C1414.51 56.1098 1417.74 53.599 1420.91 51.1028C1424.08 48.6066 1427.18 46.1323 1430.23 43.68C1433.42 41.1106 1436.54 38.5705 1439.6 36.0596C1439.73 35.9388 1439.87 35.829 1440 35.7192" stroke="#2C3650" stroke-miterlimit="10"/>
<path d="M0 224.922C49.82 195.385 115.34 162.806 191.25 135.619C191.83 135.41 192.42 135.202 193 134.993C193.58 134.784 194.18 134.565 194.78 134.356C195.38 134.147 195.95 133.939 196.54 133.741C197.13 133.543 197.69 133.324 198.27 133.126C198.85 132.929 199.45 132.709 200.05 132.511C200.63 132.303 201.22 132.094 201.81 131.896C202.4 131.699 202.98 131.49 203.57 131.282C204.16 131.073 204.74 130.875 205.33 130.678C205.92 130.48 206.5 130.271 207.09 130.074C207.66 129.876 208.23 129.689 208.8 129.492C209.39 129.294 209.99 129.085 210.58 128.888C211.17 128.69 211.77 128.493 212.36 128.284C212.94 128.097 213.52 127.9 214.11 127.702C214.68 127.515 215.26 127.318 215.84 127.12C216.42 126.922 217.02 126.736 217.61 126.538C218.18 126.351 218.75 126.165 219.33 125.967C219.94 125.769 220.56 125.572 221.18 125.363C221.73 125.187 222.28 125.012 222.84 124.825C223.43 124.638 224.03 124.441 224.63 124.254C225.24 124.045 225.85 123.848 226.46 123.661C227.05 123.463 227.65 123.277 228.24 123.09C229.39 122.717 230.54 122.354 231.69 121.992C232.24 121.816 232.78 121.652 233.33 121.476C233.95 121.278 234.57 121.092 235.19 120.894C325.06 92.8392 426.88 73.6674 533.03 75.5341C713.4 78.949 847.89 145.479 952.23 177.234C991.39 189.148 1028.08 196.154 1063.46 195.671C1103.47 195.001 1143.26 189.069 1181.98 178.003L1182.46 177.871C1182.48 177.869 1182.5 177.862 1182.52 177.849C1182.55 177.848 1182.59 177.841 1182.62 177.827C1182.65 177.815 1182.67 177.808 1182.7 177.805C1182.78 177.783 1182.85 177.762 1182.92 177.74L1183.07 177.707C1183.12 177.696 1183.16 177.674 1183.21 177.663C1183.36 177.619 1183.51 177.575 1183.65 177.531L1184.58 177.267C1184.59 177.266 1184.59 177.262 1184.6 177.256C1184.95 177.169 1185.29 177.059 1185.64 176.971C1186.06 176.839 1186.48 176.718 1186.9 176.598C1187.04 176.554 1187.18 176.51 1187.32 176.477L1188.2 176.213C1188.76 176.049 1189.32 175.884 1189.87 175.719C1190.36 175.565 1190.86 175.423 1191.35 175.28C1191.39 175.259 1191.44 175.244 1191.49 175.236C1191.82 175.126 1192.16 175.027 1192.49 174.929C1192.65 174.874 1192.81 174.83 1192.97 174.775L1194.68 174.248C1194.93 174.171 1195.17 174.094 1195.41 174.017C1195.5 173.998 1195.6 173.972 1195.69 173.94C1198.09 173.194 1200.48 172.429 1202.86 171.645C1203.75 171.36 1204.64 171.063 1205.52 170.756C1215.4 167.473 1225.11 163.93 1234.64 160.127C1243.83 156.493 1252.85 152.657 1261.7 148.62C1261.71 148.609 1261.72 148.609 1261.74 148.598C1268.15 145.688 1274.47 142.69 1280.7 139.605C1286.13 136.914 1291.48 134.173 1296.76 131.38C1301.68 128.789 1306.53 126.15 1311.32 123.463C1315.85 120.927 1320.32 118.365 1324.74 115.777C1328.97 113.296 1333.14 110.792 1337.26 108.267C1341.31 105.785 1345.31 103.285 1349.26 100.767C1353.1 98.3294 1356.88 95.8771 1360.61 93.4102C1364.32 90.9725 1367.99 88.5129 1371.59 86.0533C1375.15 83.6376 1378.65 81.2183 1382.1 78.7953C1385.54 76.3906 1388.93 73.9749 1392.26 71.5811C1395.59 69.1874 1398.86 66.7937 1402.08 64.4109C1402.1 64.4025 1402.11 64.3914 1402.13 64.378C1405.33 62.0062 1408.48 59.6491 1411.58 57.3066C1414.72 54.9459 1417.8 52.5851 1420.83 50.2572C1423.82 47.9513 1426.75 45.6674 1429.62 43.4055C1429.65 43.3862 1429.68 43.3641 1429.7 43.3396C1432.7 40.9898 1435.64 38.651 1438.52 36.3561C1438.62 36.2792 1438.73 36.1913 1438.83 36.1035C1439.22 35.7961 1439.61 35.4886 1440 35.1702" stroke="#2C3650" stroke-miterlimit="10"/>
<path d="M0 218.499C49.39 190.74 114.3 160.467 189.37 135.344L191.14 134.751C191.73 134.554 192.32 134.356 192.91 134.169C193.5 133.983 194.07 133.774 194.66 133.587C195.25 133.401 195.82 133.203 196.4 133.005C196.98 132.808 197.58 132.621 198.17 132.434C198.76 132.248 199.35 132.05 199.94 131.853C200.53 131.655 201.12 131.479 201.71 131.282C202.3 131.084 202.89 130.908 203.48 130.711H203.5C204.07 130.524 204.65 130.337 205.23 130.151C205.81 129.964 206.38 129.788 206.95 129.602L208.77 129.042C209.37 128.844 209.96 128.657 210.56 128.482C211.14 128.295 211.71 128.108 212.29 127.933C212.87 127.757 213.45 127.57 214.03 127.394C214.61 127.219 215.17 127.032 215.75 126.856C216.33 126.681 216.91 126.505 217.5 126.318C217.51 126.318 217.52 126.307 217.54 126.307C218.15 126.121 218.77 125.934 219.4 125.736C219.93 125.583 220.46 125.418 220.99 125.264C221.59 125.078 222.19 124.891 222.79 124.715C223.36 124.54 223.93 124.375 224.5 124.199C224.51 124.199 224.52 124.188 224.53 124.188C225.76 123.826 227 123.453 228.24 123.09C228.82 122.914 229.4 122.739 229.99 122.574C230.54 122.409 231.09 122.245 231.65 122.091C232.25 121.904 232.86 121.729 233.46 121.564C323.45 95.3976 425.35 77.8619 531.17 80.3435C711.66 84.9004 847.6 149.882 949.72 179.892C988.86 191.388 1025.49 197.779 1060.74 197.12C1101.33 196.235 1141.66 189.967 1180.88 178.453C1180.95 178.431 1181.02 178.42 1181.08 178.398C1181.14 178.385 1181.2 178.367 1181.26 178.344C1181.42 178.3 1181.57 178.256 1181.72 178.212C1181.82 178.179 1181.92 178.157 1182.02 178.124C1182.35 178.025 1182.67 177.937 1182.99 177.827C1183.11 177.805 1183.23 177.772 1183.35 177.729C1183.61 177.652 1183.88 177.575 1184.14 177.487C1184.55 177.377 1184.96 177.256 1185.36 177.136C1185.68 177.037 1186 176.949 1186.32 176.85C1186.35 176.829 1186.38 176.818 1186.42 176.817C1186.46 176.806 1186.5 176.795 1186.53 176.784C1186.87 176.685 1187.22 176.576 1187.56 176.466L1188.09 176.301C1188.12 176.299 1188.14 176.292 1188.17 176.279C1188.19 176.29 1188.21 176.279 1188.23 176.257C1188.8 176.093 1189.36 175.928 1189.92 175.741C1190.42 175.598 1190.92 175.445 1191.41 175.291C1191.63 175.225 1191.84 175.148 1192.06 175.082C1192.12 175.06 1192.19 175.038 1192.25 175.016C1193.07 174.764 1193.87 174.511 1194.68 174.248C1194.93 174.171 1195.17 174.094 1195.41 174.017C1197.22 173.435 1199.01 172.853 1200.8 172.26C1205.7 170.624 1210.55 168.93 1215.36 167.176C1215.92 166.968 1216.48 166.77 1217.04 166.562C1229.34 162.041 1241.5 157.097 1253.51 151.738C1260.06 148.828 1266.52 145.82 1272.89 142.712C1278.4 140.055 1283.84 137.328 1289.2 134.532C1294.12 131.984 1298.98 129.393 1303.77 126.758C1308.3 124.276 1312.77 121.769 1317.18 119.236C1321.42 116.798 1325.61 114.342 1329.74 111.868C1333.73 109.464 1337.67 107.055 1341.57 104.643C1341.57 104.64 1341.57 104.637 1341.57 104.635C1341.57 104.633 1341.58 104.632 1341.58 104.632C1345.43 102.238 1349.24 99.8227 1352.99 97.418C1356.66 95.0572 1360.28 92.6928 1363.84 90.3247C1367.32 88.0188 1370.77 85.7019 1374.16 83.3851C1377.55 81.0682 1380.92 78.7514 1384.22 76.4455C1387.55 74.1286 1390.83 71.8154 1394.05 69.5059C1397.23 67.2329 1400.36 64.9746 1403.44 62.731C1406.52 60.4873 1409.54 58.2656 1412.5 56.0659L1412.51 56.0549C1415.41 53.9137 1418.26 51.7835 1421.06 49.6643C1421.1 49.6313 1421.14 49.6019 1421.18 49.5765C1427.18 45.0635 1432.97 40.6384 1438.52 36.3561C1438.62 36.2792 1438.73 36.1914 1438.83 36.1035C1439.22 35.818 1439.61 35.5106 1440 35.2141" stroke="#2C3650" stroke-miterlimit="10"/>
<path d="M0 212.185C48.98 186.184 113.27 158.184 187.47 135.07C188.06 134.894 188.65 134.707 189.24 134.521C189.83 134.334 190.43 134.158 191.03 133.972C191.61 133.785 192.2 133.609 192.79 133.434C193.38 133.258 193.97 133.071 194.56 132.896C195.15 132.72 195.73 132.533 196.32 132.358C196.91 132.182 197.51 131.995 198.1 131.82C198.69 131.644 199.29 131.457 199.88 131.282L201.67 130.755C202.25 130.579 202.83 130.403 203.42 130.227C203.99 130.063 204.57 129.887 205.15 129.722C205.75 129.536 206.35 129.36 206.95 129.195C207.55 129.009 208.16 128.833 208.77 128.668C209.34 128.493 209.91 128.328 210.48 128.163C211.07 127.987 211.66 127.823 212.25 127.658C212.84 127.493 213.4 127.318 213.98 127.164C214.57 126.988 215.16 126.813 215.76 126.648C216.39 126.472 217.03 126.286 217.67 126.11C218.15 125.967 218.64 125.835 219.12 125.693C219.7 125.528 220.29 125.374 220.88 125.198C222.08 124.869 223.29 124.529 224.5 124.199C224.51 124.199 224.52 124.188 224.53 124.188C225.17 124.013 225.81 123.837 226.46 123.661L228.26 123.167L229.98 122.706C230.56 122.541 231.14 122.387 231.73 122.234C321.83 97.9781 423.81 82.0565 529.3 85.164C709.92 90.8628 847.31 154.264 947.21 182.549C986.33 193.617 1022.9 199.404 1058.03 198.58C1099 197.477 1139.7 190.918 1179.23 179.046C1179.34 179.013 1179.45 178.991 1179.55 178.958L1179.56 178.947C1179.8 178.882 1180.04 178.805 1180.28 178.739C1180.3 178.728 1180.33 178.728 1180.35 178.717C1180.39 178.697 1180.44 178.683 1180.48 178.673C1180.69 178.618 1180.89 178.563 1181.09 178.497C1181.38 178.409 1181.67 178.322 1181.95 178.245L1182.04 178.212C1182.1 178.2 1182.16 178.182 1182.21 178.157C1182.7 178.014 1183.18 177.871 1183.66 177.718C1184.14 177.564 1184.59 177.432 1185.05 177.289C1185.07 177.277 1185.1 177.27 1185.12 177.267C1185.24 177.235 1185.36 177.202 1185.48 177.158C1185.79 177.07 1186.1 176.971 1186.4 176.872C1186.41 176.874 1186.43 176.87 1186.44 176.861C1186.72 176.773 1186.99 176.686 1187.26 176.598C1187.61 176.499 1187.95 176.389 1188.29 176.279C1188.52 176.202 1188.75 176.125 1188.97 176.06L1189.18 175.994C1189.93 175.763 1190.67 175.533 1191.41 175.291C1191.63 175.225 1191.84 175.148 1192.06 175.082C1192.12 175.06 1192.19 175.038 1192.25 175.016C1192.49 174.94 1192.73 174.863 1192.97 174.775C1193.48 174.621 1193.98 174.456 1194.48 174.281C1195.95 173.809 1197.42 173.315 1198.88 172.82C1214.56 167.528 1229.81 161.576 1244.59 155.164C1244.62 155.145 1244.66 155.13 1244.69 155.12C1251.52 152.155 1258.25 149.092 1264.87 145.929C1270.45 143.294 1275.96 140.586 1281.39 137.804C1286.33 135.311 1291.21 132.764 1296.02 130.162C1300.54 127.746 1305 125.294 1309.4 122.805C1313.64 120.433 1317.83 118.032 1321.98 115.602C1325.95 113.274 1329.87 110.935 1333.73 108.585C1337.56 106.268 1341.34 103.937 1345.07 101.591C1348.71 99.3213 1352.3 97.0411 1355.84 94.7498C1359.31 92.5098 1362.73 90.2735 1366.11 88.0408C1369.48 85.8228 1372.8 83.6011 1376.08 81.3757C1379.36 79.1504 1382.59 76.9396 1385.79 74.7436C1385.81 74.7326 1385.84 74.7106 1385.86 74.6996C1388.93 72.5768 1391.95 70.4685 1394.93 68.3749C1394.99 68.331 1395.06 68.2871 1395.12 68.2432C1398.16 66.113 1401.15 63.9974 1404.09 61.8965C1404.15 61.8526 1404.21 61.8087 1404.28 61.7647C1410.05 57.6581 1415.64 53.6063 1421.06 49.6644C1421.1 49.6313 1421.14 49.6019 1421.18 49.5765C1424.04 47.4902 1426.85 45.4332 1429.62 43.4055C1429.65 43.3863 1429.68 43.3642 1429.7 43.3397C1433.08 40.8581 1436.38 38.4314 1439.6 36.0597C1439.73 35.9608 1439.87 35.862 1440 35.7632" stroke="#2C3650" stroke-miterlimit="10"/>
<path d="M0 206.003C48.57 181.725 112.24 155.932 185.59 134.795C186.18 134.63 186.77 134.455 187.37 134.29C187.97 134.125 188.55 133.95 189.15 133.774C189.73 133.609 190.32 133.445 190.91 133.28C191.5 133.115 192.08 132.95 192.67 132.775L194.46 132.281C195.05 132.116 195.64 131.951 196.24 131.776C196.83 131.622 197.43 131.457 198.02 131.292C198.63 131.117 199.23 130.952 199.84 130.787C200.42 130.623 201.01 130.469 201.6 130.304C202.17 130.15 202.75 129.986 203.33 129.832C203.93 129.667 204.53 129.503 205.13 129.349C205.73 129.195 206.32 129.02 206.92 128.866C207.48 128.712 208.05 128.558 208.62 128.405C209.19 128.251 209.78 128.097 210.37 127.932C210.94 127.79 211.52 127.636 212.1 127.482L213.96 126.988C214.61 126.823 215.25 126.659 215.9 126.483C215.92 126.483 215.95 126.472 215.97 126.472C216.41 126.351 216.86 126.241 217.3 126.121C218.49 125.813 219.68 125.506 220.88 125.198C221.51 125.034 222.15 124.88 222.79 124.715C223.4 124.561 224.01 124.397 224.63 124.254C225.25 124.089 225.87 123.936 226.49 123.782C227.08 123.628 227.66 123.485 228.25 123.332C228.271 123.333 228.291 123.33 228.31 123.321C228.88 123.178 229.44 123.035 230.01 122.903C320.23 100.547 422.28 86.2509 527.44 89.9732C708.18 96.814 847.04 158.612 944.7 185.195C983.8 195.846 1020.31 201.029 1055.31 200.03C1096.76 198.696 1137.9 191.819 1177.83 179.551C1177.92 179.529 1178.02 179.499 1178.11 179.463C1178.16 179.452 1178.21 179.441 1178.25 179.43C1178.47 179.365 1178.68 179.299 1178.89 179.233C1178.98 179.212 1179.06 179.187 1179.15 179.156C1179.32 179.101 1179.49 179.057 1179.66 179.002C1179.96 178.914 1180.25 178.816 1180.55 178.728C1180.72 178.673 1180.88 178.629 1181.05 178.574C1181.36 178.475 1181.66 178.387 1181.97 178.289C1182.4 178.157 1182.82 178.025 1183.25 177.882L1184.95 177.355C1184.96 177.344 1184.96 177.344 1184.97 177.344C1185.22 177.267 1185.46 177.19 1185.71 177.103C1186.57 176.839 1187.43 176.554 1188.29 176.279C1188.52 176.202 1188.75 176.125 1188.97 176.06L1189.18 175.994C1189.43 175.906 1189.67 175.829 1189.92 175.741L1191.35 175.28C1191.39 175.259 1191.44 175.244 1191.49 175.236C1192.11 175.027 1192.73 174.819 1193.35 174.599C1193.38 174.597 1193.4 174.59 1193.43 174.577C1193.48 174.566 1193.52 174.544 1193.57 174.533C1194.78 174.127 1195.99 173.721 1197.19 173.303C1209.88 168.944 1222.28 164.204 1234.39 159.084C1241.85 155.954 1249.19 152.704 1256.42 149.333C1262.08 146.709 1267.67 144.022 1273.18 141.274C1278.21 138.781 1283.17 136.248 1288.07 133.675C1292.57 131.303 1297.02 128.913 1301.41 126.505C1305.6 124.199 1309.74 121.875 1313.83 119.532C1317.8 117.281 1321.72 114.998 1325.59 112.714C1329.36 110.485 1333.08 108.245 1336.76 105.994C1340.43 103.765 1344.04 101.536 1347.62 99.2956L1347.68 99.2627C1351.06 97.1325 1354.4 95.0132 1357.71 92.905C1361.02 90.7968 1364.27 88.6885 1367.48 86.5803C1370.78 84.4281 1374.04 82.276 1377.26 80.1238C1380.39 78.0485 1383.48 75.9769 1386.52 73.9089C1386.57 73.8863 1386.62 73.8568 1386.66 73.8211C1392.63 69.7913 1398.44 65.8164 1404.09 61.8964C1404.15 61.8525 1404.21 61.8085 1404.28 61.7646C1407.06 59.843 1409.8 57.9434 1412.5 56.0658L1412.51 56.0548C1415.33 54.1003 1418.1 52.1568 1420.83 50.2572C1424.02 48.0172 1427.15 45.8247 1430.23 43.6799C1432.59 42.0219 1434.91 40.3968 1437.2 38.8046C1438.14 38.1458 1439.08 37.4979 1440 36.8611" stroke="#2C3650" stroke-miterlimit="10"/>
<path d="M0 199.92C48.17 177.366 111.21 153.737 183.71 134.532C184.31 134.367 184.9 134.213 185.5 134.06C186.1 133.906 186.69 133.741 187.28 133.588L189.07 133.126C189.65 132.973 190.23 132.819 190.82 132.665C191.41 132.511 192.01 132.358 192.62 132.204C193.23 132.05 193.82 131.897 194.43 131.743C195.01 131.589 195.6 131.435 196.19 131.293C196.8 131.139 197.42 130.974 198.04 130.831C198.62 130.678 199.2 130.524 199.79 130.381C200.38 130.239 200.95 130.085 201.53 129.953C202.13 129.799 202.73 129.646 203.33 129.503C203.93 129.36 204.52 129.206 205.12 129.053L206.87 128.624C207.48 128.482 208.08 128.328 208.69 128.185C209.27 128.042 209.84 127.9 210.42 127.768C211.06 127.603 211.71 127.449 212.35 127.296C213.13 127.109 213.9 126.922 214.68 126.747C215.55 126.527 216.42 126.329 217.3 126.121C217.9 125.978 218.51 125.835 219.12 125.693C219.73 125.55 220.36 125.396 220.99 125.264C221.6 125.111 222.22 124.968 222.84 124.825C223.46 124.682 224.06 124.54 224.67 124.408C225.28 124.276 225.88 124.122 226.48 123.991C227.08 123.859 227.67 123.716 228.26 123.584C318.6 103.128 420.73 90.4566 525.57 94.7938C706.44 102.766 846.77 162.938 942.19 187.853C981.28 198.064 1017.72 202.654 1052.59 201.49C1094.52 199.914 1136.12 192.712 1176.46 180.046C1176.51 180.036 1176.56 180.021 1176.61 180.002C1176.73 179.969 1176.86 179.925 1176.98 179.892L1177.4 179.76C1177.59 179.705 1177.77 179.639 1177.96 179.584L1178.16 179.519C1178.42 179.442 1178.69 179.354 1178.95 179.266C1179.31 179.167 1179.66 179.057 1180.02 178.948L1180.11 178.915C1180.18 178.893 1180.25 178.871 1180.31 178.849C1180.33 178.849 1180.34 178.838 1180.36 178.838C1180.55 178.783 1180.73 178.717 1180.91 178.662C1182.26 178.223 1183.61 177.795 1184.95 177.355C1184.96 177.344 1184.96 177.344 1184.97 177.344C1185.22 177.268 1185.46 177.191 1185.71 177.103L1186.4 176.872C1186.41 176.874 1186.43 176.87 1186.44 176.861C1186.99 176.686 1187.54 176.51 1188.09 176.301C1188.12 176.299 1188.14 176.292 1188.17 176.279C1188.19 176.29 1188.21 176.279 1188.23 176.257C1188.78 176.093 1189.32 175.906 1189.87 175.719C1190.61 175.478 1191.34 175.225 1192.08 174.962C1193.25 174.566 1194.43 174.171 1195.6 173.754C1195.62 173.752 1195.64 173.744 1195.66 173.732C1196.05 173.6 1196.44 173.468 1196.83 173.326C1205.34 170.339 1213.72 167.177 1221.98 163.839C1230.56 160.391 1239 156.782 1247.3 153.012C1253.19 150.355 1259 147.628 1264.74 144.831C1269.75 142.405 1274.7 139.938 1279.58 137.431C1284.14 135.103 1288.65 132.742 1293.11 130.348C1297.28 128.108 1301.4 125.854 1305.48 123.584C1309.43 121.388 1313.34 119.178 1317.2 116.952C1320.94 114.811 1324.64 112.655 1328.29 110.485C1331.89 108.355 1335.45 106.224 1338.96 104.094C1342.35 102.03 1345.69 99.9875 1348.99 97.9342C1352.26 95.9138 1355.49 93.8898 1358.7 91.862C1358.71 91.8511 1358.71 91.8511 1358.72 91.8511C1362.08 89.7209 1365.41 87.6017 1368.7 85.4934C1368.76 85.4605 1368.81 85.4275 1368.86 85.3946C1374.88 81.5148 1380.77 77.6864 1386.52 73.9091C1386.57 73.8864 1386.62 73.8569 1386.66 73.8213C1389.45 71.9875 1392.21 70.1721 1394.93 68.375C1394.99 68.3311 1395.06 68.2871 1395.12 68.2432C1397.93 66.3875 1400.7 64.5501 1403.44 62.7311C1406.19 60.8973 1408.9 59.0892 1411.58 57.3067C1414.74 55.2095 1417.85 53.1415 1420.91 51.1028C1423.22 49.5766 1425.51 48.0613 1427.76 46.5569H1427.77C1430.11 45.0087 1432.42 43.4898 1434.7 42.0001C1436.49 40.8252 1438.26 39.6722 1440 38.5413" stroke="#2C3650" stroke-miterlimit="10"/>
<path d="M0 193.968C47.76 173.106 110.18 151.584 181.81 134.257C182.4 134.103 183 133.961 183.59 133.829C184.18 133.675 184.77 133.543 185.36 133.39C185.96 133.258 186.56 133.104 187.17 132.961C187.75 132.83 188.33 132.687 188.92 132.544C189.51 132.401 190.12 132.27 190.72 132.127C191.32 131.984 191.92 131.841 192.53 131.71C193.11 131.567 193.7 131.435 194.29 131.292C194.9 131.161 195.51 131.018 196.13 130.875C196.71 130.743 197.3 130.601 197.89 130.469L199.65 130.074C200.24 129.942 200.85 129.799 201.46 129.656C202.07 129.514 202.66 129.382 203.27 129.25C203.85 129.118 204.43 128.987 205.02 128.866C205.62 128.723 206.22 128.591 206.82 128.47C207.35 128.339 207.89 128.229 208.43 128.108C208.94 127.987 209.46 127.878 209.98 127.768C211.54 127.427 213.11 127.087 214.68 126.747L215.9 126.483C215.92 126.483 215.95 126.472 215.97 126.472C216.53 126.351 217.1 126.23 217.67 126.11C218.24 125.989 218.82 125.868 219.4 125.736C219.98 125.605 220.58 125.495 221.18 125.363C221.78 125.231 222.4 125.11 223.01 124.99C223.62 124.869 224.2 124.737 224.8 124.616C224.81 124.616 224.82 124.605 224.83 124.605L226.58 124.243C317.02 105.686 419.22 94.6508 523.71 99.603C704.7 108.717 846.52 167.231 939.68 190.51C978.76 200.282 1015.13 204.29 1049.87 202.939C1094.16 201.216 1136.04 192.838 1175.33 180.452C1175.35 180.449 1175.37 180.442 1175.39 180.43C1175.59 180.364 1175.79 180.309 1175.99 180.243C1176.07 180.221 1176.15 180.188 1176.23 180.166C1176.45 180.1 1176.67 180.023 1176.88 179.958C1177.09 179.892 1177.28 179.826 1177.47 179.771C1177.56 179.748 1177.65 179.719 1177.73 179.683C1177.94 179.617 1178.14 179.551 1178.34 179.485C1178.77 179.354 1179.2 179.211 1179.63 179.079L1180.02 178.947L1180.11 178.914C1180.18 178.892 1180.25 178.87 1180.31 178.849C1180.33 178.849 1180.34 178.838 1180.36 178.838C1180.55 178.783 1180.73 178.717 1180.91 178.662C1181.69 178.398 1182.47 178.146 1183.25 177.882L1185.05 177.289C1185.07 177.277 1185.1 177.269 1185.12 177.267C1185.41 177.169 1185.7 177.07 1185.98 176.971C1186.09 176.927 1186.21 176.883 1186.32 176.85C1186.35 176.829 1186.38 176.818 1186.42 176.817C1186.46 176.806 1186.5 176.795 1186.53 176.784L1187.1 176.587C1187.47 176.466 1187.84 176.345 1188.2 176.213C1189.01 175.939 1189.81 175.664 1190.61 175.39C1191.77 174.983 1192.93 174.577 1194.08 174.171C1208.71 168.999 1222.96 163.3 1236.81 157.228L1236.9 157.195C1243.15 154.461 1249.32 151.654 1255.41 148.773C1260.56 146.347 1265.65 143.876 1270.69 141.361C1275.28 139.078 1279.82 136.764 1284.3 134.422C1288.45 132.259 1292.56 130.074 1296.62 127.867C1300.55 125.744 1304.44 123.61 1308.29 121.465C1312.05 119.368 1315.77 117.259 1319.45 115.14C1323.01 113.098 1326.53 111.052 1330.02 109.002C1333.27 107.092 1336.49 105.181 1339.68 103.27C1339.72 103.248 1339.76 103.227 1339.81 103.194C1342.86 101.371 1345.88 99.5481 1348.87 97.7254C1355.63 93.6187 1362.24 89.5413 1368.7 85.4932C1368.76 85.4603 1368.81 85.4273 1368.86 85.3944C1371.69 83.6265 1374.49 81.8697 1377.26 80.1238C1380.13 78.312 1382.97 76.5186 1385.79 74.7434C1385.81 74.7324 1385.84 74.7105 1385.86 74.6995C1388.62 72.9536 1391.35 71.2223 1394.05 69.5057C1396.76 67.7928 1399.44 66.0945 1402.08 64.4108C1402.1 64.4024 1402.11 64.3913 1402.13 64.3779C1405.2 62.4344 1408.23 60.5201 1411.21 58.6352C1413.53 57.1638 1415.83 55.7254 1418.1 54.2979C1420.4 52.8595 1422.67 51.443 1424.92 50.0485C1430.08 46.8422 1435.11 43.7567 1440 40.8469" stroke="#2C3650" stroke-miterlimit="10"/>
<path d="M0 188.138C47.37 168.955 109.16 149.476 179.96 133.994C180.55 133.851 181.14 133.719 181.74 133.598L183.55 133.203C184.15 133.071 184.74 132.94 185.34 132.819C185.94 132.698 186.52 132.566 187.12 132.445C187.72 132.303 188.32 132.182 188.93 132.05C189.52 131.929 190.11 131.798 190.71 131.677C191.31 131.556 191.9 131.424 192.5 131.304C193.1 131.183 193.72 131.04 194.33 130.919C194.94 130.798 195.53 130.667 196.13 130.546C196.71 130.425 197.3 130.304 197.89 130.184C198.5 130.063 199.12 129.931 199.73 129.81C200.34 129.689 200.95 129.558 201.56 129.437C202.13 129.316 202.71 129.206 203.28 129.096L205.07 128.734C205.61 128.624 206.14 128.514 206.68 128.416C207.78 128.196 208.88 127.976 209.98 127.768C210.77 127.614 211.56 127.46 212.35 127.296C212.89 127.197 213.42 127.098 213.96 126.988C214.56 126.878 215.16 126.758 215.76 126.648L217.5 126.318C217.51 126.318 217.52 126.307 217.54 126.307C218.13 126.198 218.73 126.088 219.33 125.967C219.95 125.857 220.57 125.736 221.19 125.616L222.98 125.286L224.78 124.957C315.35 108.278 417.66 98.8455 521.85 104.423C702.96 114.679 846.27 171.492 937.17 193.167C976.24 202.478 1012.54 205.926 1047.15 204.4C1092.03 202.413 1134.36 193.65 1174.06 180.902L1174.35 180.803L1174.64 180.704C1174.66 180.704 1174.68 180.693 1174.7 180.693C1174.75 180.674 1174.79 180.659 1174.84 180.649C1174.9 180.636 1174.95 180.618 1175.01 180.594C1175.02 180.594 1175.02 180.594 1175.02 180.584H1175.03C1175.1 180.568 1175.17 180.546 1175.23 180.518C1175.42 180.463 1175.62 180.397 1175.81 180.331L1176.83 180.002C1176.88 179.98 1176.94 179.958 1177 179.936C1177.88 179.661 1178.75 179.365 1179.63 179.079L1180.02 178.947L1180.11 178.914C1180.18 178.893 1180.25 178.871 1180.31 178.849C1180.33 178.849 1180.34 178.838 1180.36 178.838C1180.9 178.651 1181.44 178.475 1181.97 178.289C1182.54 178.102 1183.1 177.915 1183.66 177.718C1184.22 177.52 1184.79 177.333 1185.36 177.136C1185.61 177.048 1185.86 176.971 1186.11 176.872C1186.36 176.773 1186.64 176.696 1186.9 176.598C1187.27 176.477 1187.64 176.345 1188.01 176.213C1188.52 176.038 1189.03 175.862 1189.54 175.675C1190.57 175.324 1191.6 174.951 1192.62 174.577C1203.84 170.569 1214.83 166.28 1225.59 161.708C1232.4 158.842 1239.12 155.889 1245.74 152.847C1245.79 152.825 1245.83 152.803 1245.88 152.781C1251.12 150.376 1256.31 147.928 1261.44 145.435C1266.07 143.206 1270.65 140.922 1275.19 138.627C1279.4 136.497 1283.57 134.349 1287.69 132.182C1291.71 130.063 1295.69 127.936 1299.63 125.802C1303.38 123.771 1307.1 121.729 1310.79 119.675C1314.33 117.71 1317.83 115.737 1321.3 113.757C1321.39 113.723 1321.48 113.675 1321.56 113.614C1324.78 111.791 1327.97 109.961 1331.14 108.124C1337.15 104.643 1343.06 101.177 1348.87 97.7255C1352.18 95.76 1355.46 93.8055 1358.7 91.8619C1358.71 91.851 1358.71 91.851 1358.72 91.851C1361.67 90.0831 1364.59 88.3262 1367.48 86.5804C1370.38 84.8345 1373.25 83.0996 1376.08 81.3757C1378.82 79.7176 1381.53 78.0742 1384.22 76.4455C1386.93 74.8094 1389.61 73.1879 1392.26 71.5811C1395.27 69.7584 1398.24 67.9686 1401.18 66.2117C1401.19 66.2008 1401.2 66.2008 1401.21 66.1898C1403.53 64.7953 1405.83 63.4227 1408.1 62.0721C1410.38 60.7106 1412.63 59.3819 1414.86 58.0643C1423.56 52.9474 1431.94 48.138 1440 43.7458" stroke="#2C3650" stroke-miterlimit="10"/>
<path d="M0 182.428C46.98 164.892 108.13 147.412 178.06 133.719C178.66 133.598 179.26 133.478 179.86 133.368C180.46 133.258 181.06 133.126 181.67 133.016C182.26 132.896 182.86 132.786 183.46 132.676C184.06 132.566 184.66 132.434 185.26 132.325C185.86 132.215 186.47 132.094 187.07 131.984C187.67 131.874 188.26 131.754 188.85 131.644C189.44 131.534 190.06 131.413 190.67 131.303C191.28 131.194 191.87 131.084 192.47 130.963C193.09 130.853 193.71 130.743 194.33 130.623C194.9 130.524 195.48 130.414 196.06 130.315C196.7 130.194 197.34 130.074 197.99 129.964C198.59 129.854 199.2 129.744 199.81 129.634C200.42 129.525 201.04 129.404 201.66 129.305C201.677 129.306 201.694 129.302 201.71 129.294C202.34 129.173 202.96 129.063 203.59 128.954C204.62 128.778 205.65 128.591 206.68 128.416C207.26 128.306 207.85 128.207 208.43 128.108C209.09 127.987 209.76 127.878 210.42 127.768C210.98 127.669 211.54 127.57 212.1 127.482C212.72 127.372 213.35 127.263 213.98 127.164C214.57 127.054 215.16 126.955 215.75 126.856C216.37 126.758 216.99 126.648 217.61 126.538L219.41 126.241L221.22 125.945L223.02 125.649C313.72 110.858 416.1 103.04 519.98 109.233C701.22 120.63 846.04 175.73 934.66 195.824C970.724 204.197 1007.6 207.565 1044.43 205.849C1089.94 203.598 1132.76 194.419 1172.89 181.308C1172.91 181.308 1172.92 181.297 1172.94 181.286C1173.02 181.264 1173.1 181.231 1173.18 181.209C1173.25 181.189 1173.31 181.163 1173.38 181.132C1173.44 181.119 1173.5 181.101 1173.56 181.078C1173.64 181.056 1173.72 181.034 1173.81 181.001C1173.81 180.998 1173.81 180.995 1173.81 180.993C1173.81 180.991 1173.82 180.99 1173.82 180.99H1173.83C1173.95 180.957 1174.07 180.913 1174.2 180.869C1174.36 180.814 1174.53 180.759 1174.7 180.693C1174.75 180.674 1174.79 180.659 1174.84 180.649C1174.9 180.636 1174.95 180.618 1175.01 180.594C1175.02 180.594 1175.02 180.594 1175.02 180.583H1175.03C1175.1 180.568 1175.17 180.546 1175.23 180.518C1175.42 180.463 1175.62 180.397 1175.81 180.331C1176.21 180.199 1176.61 180.067 1177 179.936C1177.15 179.881 1177.31 179.826 1177.47 179.771C1177.56 179.748 1177.65 179.719 1177.73 179.683C1177.94 179.617 1178.14 179.551 1178.34 179.485C1178.54 179.42 1178.75 179.343 1178.95 179.266C1179.48 179.101 1180.02 178.914 1180.55 178.728C1180.97 178.596 1181.39 178.442 1181.81 178.3C1181.86 178.278 1181.9 178.267 1181.95 178.245L1182.04 178.212C1182.1 178.2 1182.16 178.182 1182.21 178.157C1182.86 177.937 1183.5 177.718 1184.14 177.487C1184.48 177.377 1184.81 177.256 1185.14 177.136L1185.64 176.971C1186.55 176.652 1187.46 176.323 1188.37 176.005C1189.37 175.642 1190.38 175.28 1191.38 174.918C1192.84 174.39 1194.29 173.852 1195.75 173.303C1196.32 173.095 1196.88 172.886 1197.45 172.667C1199.87 171.766 1202.28 170.847 1204.68 169.91C1204.98 169.79 1205.28 169.669 1205.58 169.559C1215.51 165.694 1225.26 161.635 1234.84 157.382C1234.89 157.36 1234.94 157.338 1234.98 157.316C1240.53 154.867 1246.02 152.364 1251.46 149.805C1251.51 149.783 1251.55 149.772 1251.59 149.75C1256.24 147.565 1260.85 145.351 1265.41 143.107C1269.72 140.984 1273.99 138.851 1278.21 136.706C1282.17 134.696 1286.09 132.672 1289.97 130.634C1293.88 128.58 1297.76 126.52 1301.6 124.452C1305.26 122.486 1308.89 120.513 1312.48 118.533C1318.8 115.063 1325.02 111.594 1331.14 108.124C1334.01 106.499 1336.85 104.881 1339.68 103.27C1339.72 103.249 1339.76 103.227 1339.81 103.194C1342.89 101.437 1345.96 99.6799 1348.99 97.934L1357.71 92.905C1360.53 91.2689 1363.33 89.6475 1366.11 88.0407C1368.81 86.4815 1371.49 84.9296 1374.16 83.385C1376.83 81.8404 1379.47 80.3105 1382.1 78.7952C1385.09 77.0823 1388.06 75.3693 1391 73.6893C1393.27 72.4046 1395.52 71.1199 1397.75 69.8572C1400.01 68.5725 1402.26 67.3097 1404.48 66.0689C1416.85 59.1513 1428.69 52.7936 1440 47.2595" stroke="#2C3650" stroke-miterlimit="10"/>
<path d="M0 176.817C46.59 160.918 107.09 145.391 176.13 133.445C176.73 133.346 177.34 133.236 177.94 133.137C178.54 133.038 179.14 132.929 179.74 132.819C180.34 132.709 180.95 132.621 181.56 132.511L183.36 132.215C183.97 132.116 184.57 132.006 185.18 131.907L186.97 131.611C187.59 131.512 188.21 131.413 188.83 131.303C189.43 131.205 190.04 131.106 190.65 131.018C191.26 130.908 191.88 130.809 192.49 130.711L194.17 130.447C194.82 130.337 195.48 130.227 196.13 130.129C196.73 130.03 197.33 129.931 197.93 129.843L199.56 129.58L203.59 128.954C204.08 128.888 204.57 128.811 205.07 128.734L206.82 128.471C207.44 128.372 208.06 128.273 208.69 128.185C209.25 128.097 209.81 128.009 210.37 127.932C210.99 127.834 211.62 127.746 212.25 127.658C212.84 127.559 213.43 127.471 214.03 127.394C214.63 127.296 215.23 127.208 215.84 127.12L217.69 126.856L219.49 126.593L221.32 126.329C312.14 113.449 414.59 107.245 518.12 114.053C699.49 126.582 845.81 179.947 932.15 198.482C968.206 206.343 1005.01 209.308 1041.72 207.31C1087.94 204.762 1131.31 195.143 1171.95 181.627C1172.27 181.528 1172.58 181.418 1172.89 181.308C1172.91 181.308 1172.92 181.297 1172.94 181.286C1173.02 181.264 1173.1 181.231 1173.18 181.209C1173.31 181.174 1173.44 181.13 1173.56 181.078C1173.64 181.056 1173.72 181.034 1173.81 181.001C1173.81 180.998 1173.81 180.995 1173.81 180.993C1173.81 180.991 1173.82 180.99 1173.82 180.99H1173.83C1173.95 180.957 1174.07 180.913 1174.2 180.869C1174.36 180.814 1174.53 180.759 1174.7 180.693C1174.75 180.674 1174.79 180.659 1174.84 180.649C1174.9 180.636 1174.95 180.618 1175.01 180.594C1175.02 180.594 1175.02 180.594 1175.02 180.583H1175.03C1175.1 180.568 1175.17 180.546 1175.23 180.518C1175.27 180.51 1175.31 180.495 1175.34 180.474C1175.48 180.43 1175.62 180.375 1175.76 180.331C1176.13 180.21 1176.5 180.089 1176.88 179.958C1177.24 179.837 1177.6 179.716 1177.96 179.584L1178.16 179.518C1178.66 179.354 1179.16 179.178 1179.66 179.002C1180.14 178.838 1180.61 178.673 1181.09 178.497C1181.72 178.278 1182.36 178.058 1182.99 177.827C1183.41 177.685 1183.83 177.531 1184.25 177.388C1184.27 177.388 1184.3 177.38 1184.32 177.366C1184.41 177.333 1184.5 177.3 1184.58 177.267C1184.59 177.266 1184.59 177.262 1184.6 177.256C1184.63 177.256 1184.66 177.244 1184.69 177.223C1185.54 176.927 1186.39 176.62 1187.23 176.312C1188.2 175.972 1189.16 175.62 1190.12 175.258C1200.79 171.349 1211.26 167.209 1221.54 162.839C1227.95 160.138 1234.28 157.367 1240.53 154.527C1240.6 154.504 1240.67 154.475 1240.73 154.439C1245.48 152.287 1250.18 150.102 1254.84 147.884C1254.92 147.852 1255 147.815 1255.08 147.774C1259.45 145.699 1263.79 143.602 1268.09 141.482C1271.96 139.583 1275.8 137.668 1279.6 135.74C1283.49 133.774 1287.34 131.801 1291.16 129.821C1291.39 129.7 1291.62 129.58 1291.84 129.47C1298.82 125.835 1305.7 122.19 1312.48 118.533C1315.44 116.952 1318.38 115.36 1321.3 113.757C1321.39 113.723 1321.48 113.675 1321.56 113.614C1324.4 112.077 1327.22 110.54 1330.02 109.002L1338.96 104.094C1341.87 102.484 1344.76 100.884 1347.62 99.2956L1347.68 99.2627L1355.84 94.7497C1358.53 93.2674 1361.2 91.7923 1363.84 90.3246C1366.44 88.8972 1369.02 87.4734 1371.59 86.0533C1374.59 84.4172 1377.57 82.7811 1380.52 81.178C1382.72 79.9811 1384.9 78.7952 1387.08 77.6313C1389.32 76.4235 1391.54 75.2339 1393.75 74.0627C1409.89 65.476 1425.3 57.7348 1440 51.3442" stroke="#2C3650" stroke-miterlimit="10"/>
<path d="M0 171.338C46.2 157.053 106.06 143.426 174.25 133.181C174.85 133.082 175.46 132.994 176.07 132.907C176.68 132.819 177.28 132.72 177.89 132.632L179.74 132.369C180.33 132.27 180.92 132.193 181.52 132.105H181.53C182.14 132.006 182.75 131.918 183.36 131.842L185.12 131.578L186.97 131.314C187.56 131.238 188.15 131.15 188.75 131.062C189.35 130.974 189.96 130.897 190.57 130.809C191.14 130.733 191.71 130.656 192.28 130.568L194.24 130.304C194.9 130.216 195.57 130.118 196.24 130.03C197.34 129.876 198.45 129.733 199.56 129.58C200.26 129.492 200.96 129.393 201.66 129.305C201.677 129.306 201.694 129.302 201.71 129.294L203.28 129.096L205.02 128.866C205.64 128.778 206.25 128.701 206.87 128.624C207.45 128.547 208.04 128.471 208.62 128.405C209.24 128.317 209.86 128.24 210.48 128.163L212.29 127.933L214.11 127.702C214.72 127.625 215.33 127.559 215.93 127.482C216.53 127.405 217.13 127.329 217.73 127.263C218.33 127.197 218.94 127.109 219.54 127.043C310.47 116.03 413.02 111.44 516.25 118.863C697.75 132.533 845.58 184.119 929.64 201.139C965.683 208.485 1002.4 211.044 1039 208.759C1086.31 205.882 1130.53 195.682 1171.95 181.627C1172.27 181.528 1172.58 181.418 1172.89 181.308C1172.91 181.308 1172.92 181.297 1172.94 181.286C1173.02 181.264 1173.1 181.231 1173.18 181.209C1173.25 181.189 1173.31 181.163 1173.38 181.133C1173.44 181.119 1173.5 181.101 1173.56 181.078C1173.65 181.043 1173.73 181.014 1173.82 180.99H1173.83C1173.91 180.957 1173.98 180.935 1174.06 180.902L1174.35 180.803L1174.64 180.704C1174.66 180.704 1174.68 180.693 1174.7 180.693C1174.75 180.674 1174.79 180.659 1174.84 180.649C1174.9 180.623 1174.96 180.601 1175.02 180.584H1175.03C1175.1 180.568 1175.17 180.546 1175.23 180.518C1175.27 180.51 1175.31 180.495 1175.34 180.474C1175.48 180.43 1175.62 180.375 1175.76 180.331C1175.84 180.298 1175.92 180.276 1175.99 180.243C1176.06 180.21 1176.15 180.188 1176.23 180.166C1176.62 180.024 1177.01 179.892 1177.4 179.76C1177.9 179.584 1178.4 179.409 1178.89 179.233C1179.26 179.101 1179.62 178.969 1179.98 178.849C1180.08 178.816 1180.18 178.772 1180.28 178.739C1180.3 178.728 1180.33 178.728 1180.35 178.717C1180.39 178.697 1180.44 178.683 1180.48 178.673C1181 178.486 1181.51 178.3 1182.02 178.124C1182.5 177.948 1182.98 177.773 1183.45 177.608C1183.52 177.586 1183.59 177.553 1183.65 177.531C1184.51 177.224 1185.37 176.916 1186.23 176.587C1187.21 176.235 1188.18 175.884 1189.15 175.522C1190.48 175.027 1191.8 174.533 1193.12 174.05C1194.52 173.523 1195.92 172.996 1197.31 172.447C1207.47 168.524 1217.56 164.387 1227.57 160.039C1232.95 157.7 1238.27 155.329 1243.54 152.924C1248.12 150.827 1252.66 148.711 1257.16 146.577C1257.32 146.5 1257.49 146.424 1257.65 146.347C1261.53 144.502 1265.38 142.646 1269.21 140.78C1269.33 140.714 1269.46 140.659 1269.57 140.604C1276.87 137.035 1284.07 133.441 1291.16 129.821C1291.39 129.7 1291.62 129.58 1291.84 129.47C1295.12 127.801 1298.37 126.128 1301.6 124.452C1304.69 122.86 1307.75 121.267 1310.79 119.675C1313.7 118.16 1316.59 116.648 1319.45 115.14C1322.42 113.581 1325.37 112.029 1328.29 110.485C1331.13 108.98 1333.95 107.483 1336.76 105.994C1339.55 104.522 1342.32 103.055 1345.07 101.591C1347.73 100.2 1350.37 98.8089 1352.99 97.418C1355.55 96.0674 1358.09 94.7315 1360.61 93.4102C1363.61 91.84 1366.59 90.2844 1369.56 88.7435C1371.73 87.6235 1373.89 86.5035 1376.04 85.4055C1376.06 85.3945 1376.07 85.3835 1376.09 85.3835C1378.26 84.2635 1380.42 83.1618 1382.57 82.0784C1402.59 71.9545 1421.71 62.9506 1440 55.967" stroke="#2C3650" stroke-miterlimit="10"/>
<path d="M0 165.98C45.82 153.275 105.03 141.493 172.36 132.907L174.18 132.676L176.01 132.446L177.83 132.215C178.43 132.138 179.03 132.072 179.64 131.995L181.46 131.765C182.07 131.699 182.68 131.622 183.29 131.545C183.92 131.468 184.55 131.391 185.19 131.326C185.76 131.249 186.34 131.183 186.92 131.117C187.5 131.051 188.07 130.974 188.65 130.908L190.29 130.711L192.3 130.48C193.61 130.337 194.92 130.184 196.24 130.03C196.8 129.975 197.36 129.909 197.93 129.843C198.55 129.777 199.18 129.7 199.81 129.635L201.56 129.437C202.13 129.382 202.7 129.316 203.27 129.25L205.12 129.053C205.72 128.987 206.32 128.921 206.92 128.866L208.77 128.668C209.36 128.602 209.96 128.537 210.56 128.482L212.36 128.284C212.97 128.229 213.59 128.163 214.2 128.097C214.81 128.031 215.4 127.977 216 127.922C216.6 127.867 217.21 127.79 217.81 127.735C308.87 118.621 411.49 115.635 514.39 123.683C696.01 138.496 845.37 188.27 927.12 203.796C963.153 210.619 999.79 212.775 1036.28 210.22C1084.67 206.991 1129.73 196.209 1171.95 181.627C1172.27 181.528 1172.58 181.418 1172.89 181.308C1172.91 181.308 1172.92 181.297 1172.94 181.286C1173.02 181.264 1173.1 181.231 1173.18 181.209C1173.25 181.189 1173.31 181.163 1173.38 181.133C1173.44 181.119 1173.5 181.101 1173.56 181.078C1173.65 181.043 1173.73 181.014 1173.82 180.99H1173.83C1173.91 180.957 1173.98 180.935 1174.06 180.902L1174.35 180.803L1174.64 180.704C1174.87 180.628 1175.1 180.54 1175.33 180.452C1175.35 180.45 1175.37 180.442 1175.39 180.43C1175.8 180.298 1176.2 180.155 1176.61 180.002C1177.11 179.826 1177.61 179.65 1178.11 179.464C1178.36 179.387 1178.62 179.299 1178.87 179.2C1179.1 179.123 1179.32 179.035 1179.55 178.958L1179.56 178.948C1180.07 178.772 1180.58 178.585 1181.08 178.398C1181.14 178.385 1181.2 178.367 1181.26 178.344C1181.77 178.157 1182.28 177.97 1182.8 177.784C1182.84 177.774 1182.88 177.759 1182.92 177.74C1183.77 177.432 1184.61 177.125 1185.46 176.806C1186.02 176.609 1186.57 176.4 1187.12 176.191C1187.52 176.049 1187.92 175.895 1188.32 175.741C1188.34 175.738 1188.37 175.73 1188.39 175.719C1196.01 172.875 1203.53 169.929 1210.96 166.88L1211.62 166.617C1218.02 163.981 1224.35 161.291 1230.61 158.546C1230.82 158.458 1231.04 158.37 1231.25 158.271C1235.39 156.46 1239.5 154.622 1243.59 152.759C1243.68 152.715 1243.78 152.671 1243.87 152.628C1252.44 148.751 1260.88 144.777 1269.21 140.78C1269.33 140.714 1269.46 140.659 1269.57 140.604C1272.94 138.99 1276.28 137.368 1279.6 135.74C1283.08 134.038 1286.54 132.336 1289.97 130.634C1293.21 129.023 1296.43 127.413 1299.63 125.802C1302.53 124.353 1305.42 122.907 1308.29 121.465C1311.27 119.95 1314.24 118.457 1317.2 116.952C1320.01 115.536 1322.81 114.123 1325.59 112.714C1328.32 111.319 1331.04 109.943 1333.73 108.585C1336.36 107.257 1338.97 105.943 1341.57 104.643C1341.57 104.64 1341.57 104.637 1341.57 104.635C1341.57 104.633 1341.58 104.632 1341.58 104.632C1344.15 103.337 1346.71 102.048 1349.26 100.767C1352.21 99.2957 1355.15 97.839 1358.07 96.3969C1360.24 95.3208 1362.41 94.2557 1364.57 93.2016C1366.72 92.1585 1368.85 91.1153 1370.98 90.0942C1394.92 78.5538 1417.87 68.4299 1440 61.062" stroke="#2C3650" stroke-miterlimit="10"/>
<path d="M0 160.731C45.44 149.597 104 139.616 170.46 132.632C171.06 132.566 171.67 132.511 172.27 132.445C172.87 132.379 173.47 132.325 174.07 132.259C174.67 132.193 175.28 132.138 175.89 132.072C176.5 132.006 177.1 131.951 177.71 131.885C178.32 131.819 178.94 131.765 179.56 131.699C180.16 131.644 180.75 131.589 181.35 131.523C181.98 131.468 182.61 131.402 183.25 131.336C183.85 131.281 184.46 131.227 185.07 131.161L186.9 130.996C186.936 130.987 186.973 130.983 187.01 130.985C187.42 130.941 187.84 130.897 188.25 130.864C189.6 130.732 190.95 130.601 192.3 130.48C192.95 130.425 193.59 130.359 194.24 130.304C194.87 130.249 195.5 130.183 196.13 130.128L197.99 129.964C198.57 129.909 199.15 129.865 199.73 129.81C200.31 129.755 200.88 129.711 201.46 129.656C202.08 129.601 202.7 129.547 203.33 129.503C203.93 129.448 204.53 129.393 205.13 129.349C205.73 129.283 206.34 129.239 206.95 129.195C207.56 129.129 208.16 129.085 208.77 129.041C209.38 128.998 209.97 128.932 210.58 128.888C211.19 128.844 211.82 128.778 212.45 128.734C213.05 128.679 213.65 128.635 214.25 128.591C214.85 128.547 215.48 128.481 216.09 128.438C307.26 121.201 409.95 119.84 512.53 128.492C694.27 144.447 845.16 192.398 924.61 206.442C960.626 212.748 997.181 214.502 1033.56 211.669C1083.74 208.023 1130.23 196.373 1173.81 181.001C1173.81 180.998 1173.81 180.995 1173.81 180.993C1173.81 180.991 1173.82 180.99 1173.82 180.99H1173.83C1173.91 180.957 1173.98 180.935 1174.06 180.902L1174.35 180.803L1174.64 180.704C1174.87 180.627 1175.1 180.539 1175.33 180.452C1175.35 180.449 1175.37 180.442 1175.39 180.43C1175.75 180.309 1176.11 180.177 1176.46 180.045C1176.92 179.892 1177.38 179.727 1177.83 179.551C1178.3 179.397 1178.77 179.222 1179.23 179.046C1179.78 178.859 1180.33 178.662 1180.88 178.453C1181.41 178.267 1181.94 178.069 1182.46 177.871C1182.48 177.869 1182.5 177.861 1182.52 177.849C1183.4 177.531 1184.27 177.212 1185.14 176.894C1185.16 176.882 1185.19 176.874 1185.21 176.872C1186.14 176.521 1187.06 176.169 1187.99 175.829C1191.53 174.489 1195.06 173.131 1198.57 171.755C1199.86 171.25 1201.14 170.734 1202.43 170.229C1203.72 169.724 1204.99 169.208 1206.27 168.692C1208.83 167.659 1211.38 166.627 1213.92 165.573C1223.96 161.423 1233.85 157.151 1243.59 152.759C1243.68 152.715 1243.78 152.671 1243.87 152.627C1248.33 150.629 1252.76 148.612 1257.16 146.577C1257.32 146.5 1257.49 146.423 1257.65 146.347C1261.15 144.732 1264.63 143.111 1268.09 141.482C1271.48 139.901 1274.86 138.298 1278.21 136.706C1281.39 135.19 1284.55 133.682 1287.69 132.182C1290.68 130.732 1293.66 129.305 1296.62 127.867C1299.58 126.428 1302.54 125.012 1305.48 123.584C1308.27 122.234 1311.05 120.883 1313.83 119.532C1316.56 118.226 1319.28 116.908 1321.98 115.601C1324.58 114.35 1327.16 113.098 1329.74 111.868C1332.25 110.66 1334.76 109.452 1337.26 108.267C1340.23 106.85 1343.19 105.448 1346.13 104.061C1348.27 103.051 1350.4 102.052 1352.52 101.063C1354.62 100.086 1356.71 99.1199 1358.79 98.1646C1386.74 85.3175 1413.69 74.1505 1440 66.5959" stroke="#2C3650" stroke-miterlimit="10"/>
<path d="M0 155.614C45.07 146.006 102.98 137.771 168.59 132.369C169.2 132.325 169.8 132.27 170.41 132.215C171.02 132.16 171.65 132.127 172.27 132.072C172.89 132.017 173.5 131.973 174.12 131.929C174.71 131.874 175.31 131.83 175.9 131.787H175.93C176.57 131.732 177.2 131.688 177.84 131.644C178.48 131.6 179.09 131.534 179.72 131.501C180.35 131.446 180.98 131.391 181.62 131.347C182.23 131.303 182.84 131.249 183.46 131.216C184.11 131.161 184.77 131.106 185.43 131.062L188.25 130.864C188.93 130.809 189.61 130.765 190.29 130.71C190.95 130.667 191.62 130.623 192.28 130.568C192.91 130.524 193.54 130.48 194.17 130.447L196.06 130.315L197.89 130.183C198.48 130.15 199.06 130.107 199.65 130.074C200.28 130.03 200.9 129.986 201.53 129.953C202.13 129.909 202.73 129.865 203.33 129.832C203.93 129.799 204.54 129.755 205.15 129.722C205.76 129.689 206.35 129.645 206.95 129.601C207.55 129.558 208.18 129.525 208.8 129.492C209.42 129.459 210.02 129.415 210.64 129.382C211.26 129.349 211.87 129.305 212.49 129.261C213.11 129.217 213.72 129.195 214.33 129.151C305.62 123.804 408.4 124.034 510.66 133.313C692.53 150.398 844.95 196.483 922.1 209.099C961.19 215.501 996.99 215.798 1030.84 213.129C1082.5 209.045 1130.12 196.67 1174.84 180.649C1174.9 180.636 1174.95 180.618 1175.01 180.594C1175.02 180.594 1175.02 180.594 1175.02 180.583H1175.03C1175.1 180.568 1175.17 180.546 1175.23 180.518C1175.27 180.51 1175.31 180.495 1175.34 180.474C1175.48 180.43 1175.62 180.375 1175.76 180.331C1175.84 180.298 1175.92 180.276 1175.99 180.243C1176.32 180.133 1176.65 180.012 1176.98 179.892C1177.41 179.738 1177.83 179.584 1178.25 179.43C1178.46 179.354 1178.66 179.277 1178.87 179.2C1179.1 179.123 1179.32 179.035 1179.55 178.958L1179.56 178.947C1180.07 178.772 1180.58 178.585 1181.08 178.398C1181.6 178.212 1182.11 178.014 1182.62 177.827C1182.65 177.815 1182.67 177.807 1182.7 177.805C1183.52 177.498 1184.33 177.201 1185.14 176.894C1185.16 176.882 1185.19 176.874 1185.21 176.872C1186.14 176.521 1187.06 176.169 1187.99 175.829C1191.53 174.489 1195.06 173.131 1198.57 171.755C1199.86 171.25 1201.14 170.734 1202.43 170.229C1203.72 169.724 1204.99 169.208 1206.27 168.692C1208.83 167.66 1211.38 166.627 1213.92 165.573C1219.53 163.267 1225.09 160.925 1230.61 158.546C1230.82 158.458 1231.04 158.37 1231.25 158.271C1235.37 156.503 1239.47 154.721 1243.54 152.924C1247.33 151.255 1251.1 149.575 1254.84 147.884C1254.92 147.852 1255 147.815 1255.08 147.774C1258.54 146.226 1261.98 144.67 1265.41 143.107C1268.68 141.614 1271.94 140.121 1275.19 138.627C1278.24 137.222 1281.28 135.82 1284.3 134.422C1287.25 133.06 1290.19 131.702 1293.11 130.348C1295.88 129.063 1298.65 127.782 1301.41 126.505C1304.08 125.264 1306.75 124.034 1309.4 122.805C1312 121.608 1314.6 120.422 1317.18 119.236C1319.71 118.072 1322.22 116.919 1324.74 115.777C1327.67 114.449 1330.6 113.127 1333.51 111.813H1333.52C1335.62 110.858 1337.72 109.925 1339.81 108.991C1341.9 108.058 1343.98 107.147 1346.06 106.235C1378.05 92.2022 1409.15 80.0909 1440 72.5034" stroke="#2C3650" stroke-miterlimit="10"/>
<path d="M0 150.618C44.69 142.526 101.93 135.97 166.66 132.105C167.28 132.061 167.91 132.028 168.53 131.995C169.15 131.962 169.75 131.918 170.36 131.886C170.97 131.853 171.61 131.809 172.23 131.776L174.02 131.677C174.65 131.633 175.28 131.6 175.91 131.567L177.77 131.468H177.8L179.58 131.369H179.6L181.44 131.271C182.76 131.194 184.09 131.128 185.43 131.062C185.92 131.04 186.41 131.007 186.9 130.996C186.936 130.987 186.973 130.983 187.01 130.985C187.556 130.954 188.103 130.928 188.65 130.908C189.29 130.864 189.93 130.842 190.57 130.809L192.49 130.711C193.1 130.689 193.72 130.656 194.33 130.623C194.94 130.59 195.53 130.579 196.13 130.546C196.73 130.513 197.3 130.491 197.89 130.469C198.52 130.436 199.15 130.414 199.79 130.381C200.39 130.359 200.99 130.326 201.6 130.304C202.21 130.282 202.81 130.249 203.42 130.228C204.03 130.206 204.62 130.173 205.23 130.151C205.84 130.129 206.47 130.096 207.09 130.074L208.93 130.008C209.54 129.975 210.14 129.953 210.75 129.931C211.36 129.909 211.99 129.876 212.61 129.865C304.02 126.395 406.87 128.229 508.8 138.122C690.79 156.35 844.75 200.546 919.59 211.757C958.69 217.62 994.4 217.456 1028.12 214.579C1081.62 210.022 1130.64 196.736 1176.83 180.002C1176.88 179.98 1176.94 179.958 1177 179.936C1177.15 179.881 1177.31 179.826 1177.47 179.771C1177.63 179.716 1177.8 179.65 1177.96 179.584L1178.16 179.518L1179.15 179.156C1179.43 179.057 1179.7 178.948 1179.98 178.849C1180.08 178.816 1180.18 178.772 1180.28 178.739C1180.3 178.728 1180.33 178.728 1180.35 178.717C1180.39 178.697 1180.44 178.683 1180.48 178.673C1180.89 178.519 1181.31 178.366 1181.72 178.212C1182.17 178.047 1182.62 177.871 1183.07 177.707C1183.12 177.696 1183.16 177.674 1183.21 177.663C1184.01 177.355 1184.81 177.059 1185.61 176.762C1186.11 176.576 1186.62 176.389 1187.12 176.191C1187.52 176.049 1187.92 175.895 1188.32 175.741C1188.34 175.738 1188.37 175.73 1188.39 175.719C1195.98 172.842 1203.5 169.896 1210.96 166.88L1211.62 166.617C1216.97 164.442 1222.29 162.25 1227.57 160.039C1231.91 158.209 1236.23 156.372 1240.53 154.527C1240.6 154.505 1240.67 154.475 1240.73 154.439C1244.32 152.902 1247.9 151.357 1251.46 149.806C1251.51 149.784 1251.55 149.773 1251.59 149.751C1254.88 148.312 1258.16 146.874 1261.44 145.435L1270.69 141.362C1273.66 140.044 1276.62 138.734 1279.58 137.431C1282.42 136.179 1285.25 134.927 1288.07 133.675C1290.73 132.504 1293.38 131.333 1296.02 130.162C1298.61 129.02 1301.19 127.885 1303.77 126.758C1306.29 125.649 1308.81 124.551 1311.32 123.464C1314.28 122.179 1317.23 120.905 1320.18 119.642C1322.26 118.742 1324.33 117.864 1326.41 116.974C1328.42 116.129 1330.44 115.272 1332.45 114.427C1368.61 99.2848 1404.1 86.2401 1440 78.7185" stroke="#2C3650" stroke-miterlimit="10"/>
<path d="M0 145.743C44.3 139.121 100.89 134.224 164.76 131.831L166.6 131.765L168.43 131.699L170.34 131.633L172.18 131.567C172.79 131.545 173.41 131.523 174.02 131.512C174.66 131.479 175.3 131.457 175.94 131.446L177.76 131.38C178.98 131.347 180.21 131.303 181.44 131.271C182.11 131.249 182.78 131.227 183.46 131.216C184 131.194 184.53 131.183 185.07 131.161C185.69 131.15 186.3 131.128 186.92 131.117C187.54 131.106 188.14 131.073 188.75 131.062C189.38 131.04 190.02 131.029 190.65 131.018C191.25 130.996 191.86 130.985 192.47 130.963C193.08 130.941 193.71 130.93 194.33 130.919C194.93 130.908 195.53 130.886 196.13 130.875C196.77 130.864 197.4 130.842 198.04 130.831C198.64 130.82 199.24 130.809 199.84 130.787L201.67 130.754C202.27 130.743 202.87 130.721 203.48 130.711H203.5L205.33 130.678L207.18 130.645L209 130.612L210.86 130.579C309.681 128.862 408.514 132.989 506.93 142.943C689.05 162.312 844.55 204.576 917.08 214.414C956.2 219.729 991.81 219.114 1025.41 216.039C1081.21 210.922 1131.96 196.549 1180.02 178.947L1180.11 178.914C1180.18 178.892 1180.25 178.871 1180.31 178.849C1180.56 178.761 1180.81 178.662 1181.05 178.574C1181.29 178.486 1181.56 178.387 1181.81 178.3C1181.86 178.278 1181.9 178.267 1181.95 178.245L1182.04 178.212C1182.48 178.047 1182.92 177.893 1183.35 177.729C1183.65 177.619 1183.95 177.509 1184.25 177.388C1184.27 177.387 1184.3 177.38 1184.32 177.366C1184.41 177.333 1184.5 177.3 1184.58 177.267C1184.59 177.266 1184.59 177.262 1184.6 177.256C1184.63 177.256 1184.66 177.244 1184.69 177.223C1185.42 176.96 1186.15 176.685 1186.88 176.411C1187.78 176.081 1188.68 175.741 1189.57 175.401C1190.76 174.951 1191.94 174.511 1193.12 174.05C1194.52 173.523 1195.92 172.996 1197.31 172.447C1205.45 169.318 1213.53 166.115 1221.54 162.839C1225.99 161.038 1230.42 159.219 1234.84 157.382C1234.89 157.36 1234.94 157.338 1234.98 157.316C1238.58 155.834 1242.17 154.344 1245.74 152.847C1245.79 152.825 1245.83 152.803 1245.88 152.781C1249.06 151.452 1252.24 150.117 1255.41 148.773C1258.52 147.467 1261.63 146.153 1264.74 144.831C1267.56 143.656 1270.37 142.46 1273.18 141.274C1275.92 140.11 1278.66 138.953 1281.39 137.804C1284 136.717 1286.6 135.619 1289.2 134.532C1291.72 133.478 1294.24 132.427 1296.76 131.38C1299.79 130.118 1302.81 128.877 1305.83 127.625C1307.85 126.801 1309.87 125.982 1311.89 125.165C1313.88 124.353 1315.86 123.562 1317.84 122.761C1358.29 106.554 1398.44 92.5756 1440 85.2188" stroke="#2C3650" stroke-miterlimit="10"/>
<path d="M0 140.999C43.92 135.816 99.84 132.511 162.84 131.567L164.72 131.534C165.34 131.523 165.97 131.523 166.59 131.512C167.21 131.501 167.85 131.49 168.48 131.49C169.08 131.479 169.69 131.468 170.29 131.468C170.89 131.468 171.47 131.446 172.06 131.446C172.67 131.435 173.28 131.424 173.9 131.424C175.18 131.413 176.47 131.391 177.76 131.38C178.37 131.38 178.97 131.369 179.58 131.369H179.6C180.27 131.358 180.94 131.358 181.62 131.347C182.16 131.347 182.7 131.347 183.25 131.336C183.89 131.336 184.54 131.336 185.19 131.325C185.78 131.325 186.37 131.325 186.97 131.314C187.59 131.314 188.21 131.314 188.83 131.303H190.67C191.28 131.303 191.89 131.292 192.5 131.303C193.09 131.292 193.69 131.292 194.29 131.292C194.92 131.292 195.55 131.281 196.19 131.292C196.8 131.281 197.41 131.281 198.02 131.292C198.64 131.281 199.26 131.281 199.88 131.281H203.57C204.19 131.281 204.81 131.281 205.43 131.292C206.04 131.281 206.66 131.292 207.27 131.292H209.12C300.76 131.578 403.77 136.64 505.07 147.752C687.31 168.263 844.36 208.572 914.57 217.071C953.7 221.815 989.22 220.783 1022.69 217.489C1081.44 211.702 1134.4 195.967 1184.95 177.355C1184.96 177.344 1184.96 177.344 1184.97 177.344C1185.14 177.278 1185.31 177.212 1185.48 177.158C1185.65 177.103 1185.81 177.026 1185.98 176.971C1186.09 176.927 1186.21 176.883 1186.32 176.85C1186.35 176.829 1186.38 176.818 1186.42 176.817C1186.52 176.767 1186.62 176.727 1186.73 176.696C1186.93 176.619 1187.12 176.543 1187.32 176.477L1188.01 176.213C1188.4 176.07 1188.79 175.928 1189.18 175.774C1190.03 175.467 1190.88 175.148 1191.73 174.819C1193.07 174.325 1194.41 173.819 1195.75 173.303C1196.32 173.095 1196.88 172.886 1197.45 172.667C1199.86 171.755 1202.27 170.836 1204.68 169.91C1204.98 169.79 1205.28 169.669 1205.58 169.559C1212.28 166.968 1218.95 164.351 1225.59 161.708C1229.34 160.226 1233.08 158.732 1236.81 157.228L1236.9 157.195L1247.3 153.012L1256.42 149.333C1259.24 148.202 1262.06 147.068 1264.87 145.929C1267.54 144.864 1270.21 143.792 1272.89 142.712C1275.49 141.68 1278.1 140.637 1280.7 139.605C1283.81 138.375 1286.92 137.149 1290.03 135.926C1292.02 135.147 1294.02 134.367 1296.01 133.587C1297.94 132.841 1299.87 132.098 1301.8 131.358C1346.78 114.075 1391.96 99.0979 1440 91.9387" stroke="#2C3650" stroke-miterlimit="10"/>
<path d="M0 136.376C43.54 132.61 98.8 130.842 160.96 131.293C161.58 131.304 162.2 131.304 162.83 131.304C163.46 131.304 164.07 131.325 164.7 131.325C165.31 131.325 165.92 131.336 166.54 131.336C167.14 131.347 167.74 131.358 168.34 131.358C168.92 131.369 169.5 131.369 170.09 131.38H170.23C171.45 131.391 172.67 131.402 173.9 131.424C174.58 131.424 175.26 131.435 175.94 131.446C176.55 131.457 177.16 131.457 177.77 131.468H177.8L179.72 131.501C180.26 131.501 180.8 131.512 181.35 131.523C182 131.534 182.64 131.534 183.29 131.545L185.12 131.578L186.97 131.611L188.85 131.644L190.71 131.677L192.53 131.71L194.43 131.743L196.24 131.776C196.86 131.787 197.48 131.798 198.1 131.82L199.94 131.853C200.56 131.864 201.19 131.874 201.81 131.896L203.69 131.929C204.3 131.951 204.91 131.962 205.52 131.973C206.13 131.984 206.75 132.006 207.37 132.017C299.13 134.18 402.23 140.834 503.21 152.573C685.57 174.215 844.16 212.536 912.06 219.729C951.21 223.879 986.63 222.463 1019.97 218.949C1082.07 212.405 1137.46 195.122 1190.99 175.478C1191.35 175.346 1191.7 175.214 1192.06 175.082C1192.12 175.06 1192.19 175.038 1192.25 175.016C1192.33 174.982 1192.41 174.953 1192.49 174.929C1192.8 174.808 1193.12 174.698 1193.43 174.577C1193.48 174.566 1193.52 174.544 1193.57 174.533C1194.35 174.237 1195.12 173.951 1195.9 173.666C1196.21 173.556 1196.52 173.435 1196.83 173.325C1205.25 170.196 1213.63 167.034 1221.98 163.838C1226.12 162.257 1230.26 160.672 1234.39 159.084C1237.79 157.766 1241.19 156.46 1244.59 155.164C1244.62 155.145 1244.66 155.13 1244.69 155.12C1247.63 153.989 1250.57 152.869 1253.51 151.738C1256.24 150.695 1258.97 149.655 1261.7 148.62C1261.71 148.609 1261.72 148.609 1261.74 148.598C1265.17 147.291 1268.6 145.992 1272.04 144.7C1274.03 143.953 1276.02 143.217 1278.01 142.471C1279.89 141.768 1281.77 141.076 1283.66 140.373C1333.56 121.97 1384.33 105.796 1440 98.8564" stroke="#2C3650" stroke-miterlimit="10"/>
<path d="M0 131.863C43.17 129.492 97.77 129.228 159.08 131.029C159.71 131.051 160.34 131.073 160.98 131.084L162.91 131.15C163.5 131.161 164.1 131.183 164.69 131.205C165.28 131.227 165.9 131.238 166.5 131.259C167.7 131.292 168.89 131.336 170.09 131.38H170.23L172.06 131.446L174.02 131.512C174.65 131.534 175.28 131.556 175.91 131.567C176.55 131.6 177.2 131.622 177.84 131.644C178.41 131.666 178.99 131.688 179.56 131.699C180.19 131.721 180.83 131.754 181.46 131.765C182.09 131.798 182.73 131.819 183.36 131.841L185.18 131.907C185.81 131.929 186.44 131.962 187.07 131.984L188.93 132.05C189.52 132.083 190.12 132.105 190.72 132.127C191.35 132.149 191.99 132.171 192.62 132.204C193.23 132.226 193.84 132.248 194.46 132.281C195.08 132.314 195.7 132.325 196.32 132.358C196.94 132.39 197.55 132.401 198.17 132.434C198.79 132.467 199.42 132.478 200.05 132.511C200.68 132.544 201.3 132.555 201.92 132.588C202.54 132.621 203.15 132.643 203.77 132.665C204.39 132.687 205.01 132.72 205.63 132.753C297.51 136.783 400.68 145.029 501.34 157.382C683.83 180.166 843.97 216.467 909.55 222.386C948.71 225.91 984.04 224.143 1017.25 220.398C1083.74 212.91 1142.24 193.628 1199.92 172.787C1200.49 172.59 1201.06 172.381 1201.62 172.172H1201.64C1202.47 171.865 1203.29 171.568 1204.11 171.272C1204.58 171.107 1205.05 170.932 1205.52 170.756C1208.8 169.57 1212.08 168.377 1215.36 167.176C1215.92 166.968 1216.48 166.77 1217.04 166.561C1222.9 164.42 1228.77 162.275 1234.64 160.127C1239.42 158.392 1244.2 156.657 1248.99 154.922C1251.07 154.165 1253.15 153.414 1255.23 152.671C1257.18 151.968 1259.13 151.273 1261.08 150.585C1316.99 130.678 1374.49 112.736 1440 105.917" stroke="#2C3650" stroke-miterlimit="10"/>
<path d="M0 127.482C42.8 126.461 96.77 127.647 157.25 130.765C157.9 130.798 158.55 130.831 159.2 130.875C159.87 130.908 160.55 130.941 161.22 130.985C161.82 131.007 162.42 131.04 163.02 131.073C164.18 131.128 165.34 131.194 166.5 131.259L168.34 131.358C168.99 131.391 169.64 131.435 170.29 131.468L172.18 131.567C172.79 131.611 173.41 131.644 174.02 131.677C174.63 131.71 175.27 131.743 175.9 131.787H175.93L177.71 131.885C178.35 131.918 179 131.962 179.64 131.995C180.28 132.028 180.89 132.072 181.52 132.105H181.53C182.14 132.138 182.75 132.182 183.36 132.215C183.99 132.248 184.63 132.292 185.26 132.325C185.89 132.358 186.5 132.401 187.12 132.445L188.92 132.544C189.55 132.588 190.18 132.621 190.82 132.665C191.43 132.698 192.05 132.742 192.67 132.775C193.29 132.808 193.93 132.852 194.56 132.896C195.17 132.929 195.79 132.972 196.4 133.005C197.01 133.038 197.65 133.082 198.27 133.126C198.89 133.17 199.53 133.203 200.16 133.247C200.77 133.28 201.39 133.324 202.01 133.368C202.63 133.412 203.26 133.434 203.88 133.478C295.88 139.396 399.13 149.234 499.48 162.202C682.09 186.129 843.77 220.365 907.04 225.043C946.22 227.931 981.45 225.823 1014.53 221.859C1165.74 203.708 1273.99 127.427 1440 113.12" stroke="#2C3650" stroke-miterlimit="10"/>
<path d="M0 123.222C42.41 123.518 95.69 126.099 155.29 130.491C155.93 130.546 156.57 130.59 157.21 130.634C157.85 130.678 158.51 130.732 159.16 130.787C160.44 130.875 161.73 130.974 163.02 131.073L164.69 131.205L166.54 131.336C167.19 131.391 167.83 131.435 168.48 131.49C169.1 131.534 169.72 131.589 170.34 131.633C170.96 131.677 171.6 131.732 172.23 131.776C172.86 131.82 173.49 131.874 174.12 131.929C174.71 131.973 175.3 132.017 175.89 132.072C176.54 132.116 177.18 132.171 177.83 132.215C178.46 132.27 179.1 132.325 179.74 132.369C180.34 132.423 180.95 132.467 181.56 132.511L183.46 132.676C184.09 132.72 184.71 132.764 185.34 132.819C185.95 132.874 186.56 132.918 187.17 132.961L189.07 133.126C189.68 133.17 190.29 133.225 190.91 133.28C191.53 133.335 192.16 133.379 192.79 133.434C193.42 133.489 194.03 133.532 194.66 133.587C195.29 133.642 195.91 133.686 196.54 133.741C197.17 133.796 197.8 133.84 198.43 133.895C199.06 133.95 199.66 134.005 200.28 134.049L202.15 134.213C294.26 141.998 397.59 153.44 497.61 167.012C680.35 192.08 843.57 224.242 904.53 227.689C943.72 229.918 978.87 227.514 1011.81 223.308C1159.98 204.389 1265.2 132.841 1440 120.433" stroke="#2C3650" stroke-miterlimit="10"/>
<path d="M0 119.082C42.06 120.663 94.72 124.616 153.54 130.249C154.21 130.304 154.88 130.37 155.55 130.436C156.75 130.546 157.95 130.667 159.16 130.787L161.22 130.985L162.91 131.15C163.51 131.205 164.1 131.26 164.7 131.325C165.33 131.38 165.96 131.446 166.59 131.512C167.2 131.567 167.81 131.633 168.43 131.699C169.07 131.754 169.72 131.82 170.36 131.885C171 131.951 171.63 132.006 172.27 132.072C172.87 132.127 173.47 132.193 174.07 132.259C174.72 132.314 175.36 132.38 176.01 132.445C176.64 132.511 177.26 132.566 177.89 132.632C178.5 132.698 179.12 132.753 179.74 132.819L181.67 133.016C182.29 133.082 182.92 133.137 183.55 133.203C184.15 133.269 184.75 133.324 185.36 133.39L187.28 133.587C187.9 133.653 188.52 133.708 189.15 133.774L191.03 133.972L192.91 134.169C193.53 134.224 194.16 134.29 194.78 134.356L196.67 134.554L198.54 134.751L200.41 134.949C292.64 144.601 396.05 157.634 495.75 171.821C678.61 198.031 843.36 228.074 902.02 230.347C937.792 231.642 973.601 229.776 1009.1 224.769C1154.08 205.092 1256.18 138.507 1440 127.823" stroke="#2C3650" stroke-miterlimit="10"/>
<path d="M0 115.052C41.65 117.907 93.6 123.156 151.52 129.964C152.86 130.129 154.2 130.282 155.55 130.436C156.1 130.513 156.65 130.579 157.21 130.634C157.87 130.722 158.54 130.798 159.2 130.875C159.79 130.952 160.38 131.018 160.98 131.084C161.58 131.15 162.21 131.238 162.83 131.303L164.72 131.534L166.6 131.765L168.53 131.995C169.15 132.072 169.78 132.149 170.41 132.215L172.27 132.445L174.18 132.676L176.07 132.907L177.94 133.137L179.86 133.368L181.74 133.598L183.59 133.829L185.5 134.06L187.37 134.29L189.24 134.521L191.14 134.751C191.76 134.828 192.38 134.905 193 134.993L194.9 135.223L196.77 135.454C197.4 135.531 198.03 135.608 198.66 135.696C291.02 147.214 394.5 161.84 493.88 176.642C676.87 203.983 843.14 231.884 899.51 233.004C935.239 233.721 970.965 231.453 1006.38 226.218C1148.08 206.102 1246.95 144.447 1440 135.289" stroke="#2C3650" stroke-miterlimit="10"/>
<path d="M0 111.166C41.72 115.272 93.69 121.882 151.52 129.964C152.19 130.063 152.86 130.162 153.54 130.249C154.12 130.337 154.7 130.414 155.29 130.491C155.94 130.59 156.6 130.678 157.25 130.766L159.08 131.029L160.96 131.293C161.58 131.38 162.21 131.468 162.84 131.567C163.48 131.644 164.12 131.743 164.76 131.831C165.4 131.918 166.02 132.006 166.66 132.105L168.59 132.369L170.46 132.632C171.09 132.731 171.72 132.819 172.36 132.907C173 132.995 173.62 133.082 174.25 133.181L176.13 133.445C176.77 133.533 177.42 133.631 178.06 133.719C178.7 133.807 179.33 133.906 179.96 133.994L181.81 134.257C182.44 134.345 183.07 134.433 183.71 134.532L185.59 134.795C186.21 134.883 186.84 134.982 187.47 135.07C188.1 135.158 188.74 135.257 189.37 135.344C190 135.432 190.62 135.52 191.25 135.619C191.88 135.718 192.52 135.795 193.15 135.893L195.03 136.157C195.66 136.256 196.29 136.344 196.93 136.431C460.32 174.577 813.64 235.661 896.99 235.661C1102.8 235.661 1189.86 152.342 1440 142.822" stroke="#2C3650" stroke-miterlimit="10"/>
</g>
<defs>
<clipPath id="clip0_192_1292">
<rect width="1440" height="280" fill="white"/>
</clipPath>
</defs>
</svg>
