<svg width="3000" height="3000" viewBox="0 0 3000 3000" fill="none" xmlns="http://www.w3.org/2000/svg">
<path d="M1026.01 2989.67C938.009 2990.83 856.999 2922.65 841.263 2833.47C834.852 2796.17 841.263 2761.21 855.833 2727.4C880.311 2671.45 904.789 2615.5 929.267 2559.55C964.819 2478.54 1000.37 2397.53 1035.92 2316.52C1046.41 2292.63 1056.9 2269.31 1067.39 2245.42C1072.64 2233.18 1072.64 2232.6 1061.57 2225.02C1040 2210.45 1023.68 2190.05 1006.78 2170.23C978.223 2137.6 949.666 2103.79 921.108 2071.16C870.986 2012.88 820.281 1954.59 769.577 1896.31C733.442 1854.35 697.308 1812.97 661.173 1771.59C612.8 1716.22 565.009 1660.27 516.636 1604.91C487.495 1571.69 458.355 1538.47 429.214 1504.66C379.675 1446.96 329.553 1389.85 280.014 1332.15C252.039 1300.1 224.064 1267.46 196.089 1235.4C165.2 1199.85 148.298 1158.47 148.881 1111.26C150.047 1039.58 182.102 983.628 245.045 948.659C327.805 902.034 411.147 857.158 494.489 811.116C599.978 753.417 705.467 695.136 810.956 637.438C877.397 600.72 944.42 564.586 1010.86 527.869C1107.61 474.833 1204.35 421.214 1301.1 368.178C1379.78 325.05 1457.88 282.505 1536.56 239.377C1633.89 185.758 1730.63 132.722 1827.96 79.1031C1854.19 64.5328 1880.42 50.5453 1906.64 36.5578C1934.62 21.9875 1964.34 14.4109 1995.81 15.5766C2093.73 19.0734 2167.74 97.7531 2176.49 181.095C2179.98 217.23 2173.57 250.45 2159.58 282.505C2132.19 346.031 2103.63 408.975 2076.24 471.919C2045.35 541.273 2015.05 611.211 1984.74 680.566C1973.08 707.375 1960.85 734.184 1949.19 760.994C1944.53 772.067 1944.53 772.65 1953.85 779.061C1974.83 793.048 1991.15 812.281 2007.47 830.931C2043.02 871.728 2078.57 913.108 2113.54 953.905C2156.67 1004.03 2199.8 1054.15 2243.51 1103.69C2270.9 1135.16 2298.29 1166.63 2325.69 1198.1C2370.56 1249.39 2414.86 1301.26 2459.73 1352.55C2489.46 1386.93 2519.76 1421.32 2550.07 1455.71C2591.45 1503.5 2633.41 1551.87 2674.79 1600.24C2704.51 1634.63 2734.24 1668.43 2763.96 1702.82C2786.69 1729.05 2810.59 1754.69 2831.57 1782.08C2898.01 1869.5 2874.11 1995.39 2779.7 2051.92C2734.24 2079.32 2687.03 2103.79 2640.4 2129.44C2541.91 2183.64 2443.41 2237.84 2344.92 2292.04C2290.13 2322.35 2234.77 2352.07 2179.98 2382.38C2098.97 2426.67 2017.96 2471.55 1936.95 2515.84C1847.78 2564.8 1759.19 2613.75 1670.6 2662.13C1604.16 2698.26 1537.72 2734.4 1471.87 2771.11C1386.19 2818.32 1300.52 2866.11 1214.26 2912.74C1176.38 2933.14 1139.66 2956.45 1100.03 2973.93C1075.55 2984.42 1051.66 2990.83 1026.01 2989.67ZM1868.76 311.062C1863.52 312.228 1857.1 313.977 1851.28 316.891C1836.71 325.05 1822.14 332.627 1808.15 340.203C1710.82 393.822 1614.07 446.858 1516.74 500.477C1439.81 543.022 1362.3 584.984 1285.37 626.947C1189.78 679.4 1093.62 732.436 998.039 784.889C921.691 826.852 845.342 868.231 768.994 910.194C671.664 963.813 573.752 1017.43 476.422 1071.05C445.533 1087.95 441.453 1107.18 464.183 1133.99C490.992 1165.47 518.384 1196.35 545.194 1227.24C581.911 1269.79 619.211 1311.75 655.928 1354.3C699.056 1404.42 742.184 1454.54 785.895 1504.08C820.281 1543.71 855.25 1583.34 889.636 1623.56C933.347 1674.26 977.641 1724.97 1021.35 1775.67C1057.49 1817.63 1093.62 1859.01 1129.75 1900.97C1139.08 1911.47 1147.82 1922.54 1157.73 1931.86C1175.21 1949.35 1199.69 1944.69 1211.35 1923.12C1213.68 1919.04 1215.43 1914.96 1217.18 1910.88C1236.99 1866.01 1256.81 1820.55 1276.62 1775.67C1304.6 1712.73 1332.57 1649.2 1360.55 1586.26C1395.52 1506.99 1429.9 1427.73 1464.87 1348.47C1491.68 1287.27 1519.07 1225.5 1545.88 1164.3C1580.27 1085.62 1614.65 1006.94 1649.62 928.261C1684.59 848.998 1719.56 770.319 1754.53 691.056C1797.66 592.561 1841.37 494.648 1883.91 396.153C1890.33 381 1898.48 366.43 1903.15 350.694C1907.23 332.627 1889.74 310.48 1868.76 311.062ZM2566.39 1899.81C2565.8 1889.32 2561.73 1881.74 2555.9 1874.75C2535.5 1851.44 2515.68 1828.12 2495.28 1804.81C2434.09 1733.71 2372.31 1662.6 2311.12 1591.5C2267.99 1541.96 2224.86 1492.42 2181.73 1442.88C2121.12 1372.95 2061.09 1303.01 2000.48 1233.07C1961.43 1188.2 1922.38 1142.74 1883.33 1097.86C1875.17 1088.53 1867.6 1078.63 1858.27 1069.88C1840.79 1052.98 1815.14 1061.73 1808.15 1078.04C1790.08 1120.59 1770.85 1162.55 1752.2 1205.1C1721.31 1275.03 1691 1345.55 1660.11 1415.49C1632.14 1479.02 1604.16 1541.96 1576.19 1604.91C1544.72 1676.59 1513.25 1748.86 1481.19 1820.55C1457.88 1874.17 1433.98 1927.78 1410.67 1981.4C1386.19 2036.19 1363.46 2092.14 1337.24 2146.34C1312.17 2199.37 1289.45 2253.58 1264.97 2306.61C1232.91 2377.72 1202.02 2449.4 1170.55 2521.09C1152.48 2561.88 1134.42 2602.68 1116.35 2644.06C1113.44 2651.05 1111.1 2657.47 1112.85 2665.63C1118.68 2688.94 1140.83 2698.85 1162.98 2686.61C1212.51 2659.8 1262.64 2632.4 1312.17 2605.01C1389.11 2562.47 1466.04 2519.92 1543.55 2477.96C1609.99 2441.82 1676.43 2405.69 1742.29 2368.97C1829.13 2321.18 1915.39 2273.39 2002.23 2226.18C2067.5 2190.05 2133.36 2154.5 2198.63 2118.95C2288.97 2069.41 2379.3 2019.87 2469.06 1970.33C2495.28 1955.76 2521.51 1941.77 2547.15 1927.2C2560.56 1921.96 2565.8 1911.47 2566.39 1899.81Z" fill="url(#paint0_linear)"/>
<defs>
<linearGradient id="paint0_linear" x1="2134.52" y1="13.8281" x2="913.531" y2="2913.32" gradientUnits="userSpaceOnUse">
<stop stop-color="#0C56FE"/>
<stop offset="1" stop-color="#84A9FF"/>
</linearGradient>
</defs>
</svg>
