<svg width="20" height="20" viewBox="0 0 20 20" fill="none" xmlns="http://www.w3.org/2000/svg">
<path d="M18.8689 5.00109C18.8687 5.00076 18.8684 5.00008 18.8681 4.99943C18.8672 4.99829 18.8663 4.99679 18.8654 4.99565C18.8448 4.96133 18.823 4.92819 18.7994 4.89589C18.7932 4.88749 18.7868 4.87958 18.7803 4.87115C18.7617 4.84692 18.7426 4.82335 18.7224 4.80043C18.711 4.78741 18.6989 4.77471 18.6871 4.76217C18.6707 4.74537 18.6541 4.7287 18.6368 4.71239C18.6209 4.69754 18.6045 4.68286 18.588 4.66902C18.5728 4.65633 18.5577 4.64395 18.5421 4.63178C18.5232 4.61693 18.5036 4.6029 18.4838 4.58906C18.4689 4.57884 18.4541 4.56878 18.4387 4.55888C18.4176 4.54569 18.3964 4.53316 18.3747 4.52114C18.3592 4.51239 18.3436 4.50399 18.3277 4.49591C18.3052 4.48452 18.2823 4.47364 18.259 4.46374C18.2433 4.45684 18.2275 4.44991 18.2113 4.44349C18.1863 4.43376 18.161 4.425 18.1356 4.4166C18.121 4.41198 18.1065 4.40719 18.0918 4.40309C18.0623 4.39452 18.0322 4.38694 18.002 4.38049C17.9914 4.37834 17.981 4.3757 17.9704 4.37372C17.933 4.36649 17.895 4.36105 17.8574 4.35692C17.8534 4.35659 17.8499 4.35594 17.8461 4.35558C17.5765 4.32872 17.2963 4.37984 17.0436 4.52212L9.99879 8.49343L4.96063 5.65317L10.0029 2.8104L13.3647 4.70432C14.0036 5.06389 14.8206 4.85054 15.1895 4.22682C15.5585 3.60296 15.3395 2.80496 14.7006 2.44487L10.6712 0.174725C10.2579 -0.0582418 9.74858 -0.0582418 9.33531 0.174725L1.65292 4.50548C1.44238 4.61644 1.25889 4.78246 1.13048 4.99943C0.76133 5.62347 0.980163 6.42112 1.61907 6.78106L9.33118 11.1291C9.33232 11.1298 9.33333 11.1299 9.3343 11.1306C9.3748 11.1532 9.41677 11.1725 9.45923 11.1906C9.47102 11.1957 9.48231 11.2023 9.4941 11.2069C9.51962 11.2171 9.54619 11.2242 9.57224 11.2326C9.71175 11.2786 9.85511 11.304 9.99778 11.304C9.9981 11.304 9.99862 11.304 9.99911 11.304C9.99928 11.304 9.99976 11.304 10.0003 11.304C10.1461 11.304 10.2928 11.2778 10.4349 11.2297C10.4577 11.2219 10.4811 11.2162 10.5035 11.2071C10.5169 11.2018 10.5298 11.1943 10.5433 11.1885C10.5841 11.1708 10.6246 11.1523 10.6634 11.1306C10.6646 11.1299 10.6657 11.1298 10.6669 11.1291L16.3776 7.91012V13.5955L10.0008 17.1899L3.62474 13.5955V10.0007C3.62474 9.28037 3.02648 8.69656 2.28901 8.69656C1.55122 8.69656 0.95312 9.28037 0.95312 10.0007V14.3484C0.95312 14.8144 1.20746 15.2447 1.6209 15.4777L9.333 19.8256C9.53939 19.9418 9.77016 20 10.0008 20C10.2314 20 10.4622 19.9418 10.6687 19.8256L18.3811 15.4777C18.7946 15.2447 19.0489 14.8144 19.0489 14.3484V5.65317C19.0489 5.41539 18.9829 5.19315 18.8689 5.00109Z" fill="#2975CD"/>
</svg>
